<?xml version="1.0" encoding="UTF-8"?><svg xmlns="http://www.w3.org/2000/svg" xmlns:xlink="http://www.w3.org/1999/xlink" version="1.1" id="Layer_1" x="0px" y="0px" viewBox="0 0 24 24" xml:space="preserve"><path d="M16.658 24.002H6.221c-3.488 0-6.221-2.855-6.221-6.5v-11c0-3.645 2.732-6.5 6.221-6.5h7C16.896.002 20 2.979 20 6.502v1.125c0 1.208.48 1.375 1 1.375 2.243 0 3 .757 3 3v5.188c0 3.883-3.156 6.812-7.342 6.812zm-10.437-23C3.293 1.002 1 3.418 1 6.502v11c0 3.084 2.293 5.5 5.221 5.5h10.438c3.675 0 6.342-2.444 6.342-5.813v-5.188c0-1.701-.299-2-2-2-.747 0-2-.309-2-2.375V6.502c0-2.93-2.7-5.5-5.779-5.5H6.221z"/><path d="M12.5 9.002h-5c-.827 0-1.5-.673-1.5-1.5s.673-1.5 1.5-1.5h5c.827 0 1.5.673 1.5 1.5s-.673 1.5-1.5 1.5zm-5-2a.5.5 0 0 0 0 1h5a.5.5 0 0 0 0-1h-5z"/><path d="M16.5 18.002h-9c-.827 0-1.5-.673-1.5-1.5s.673-1.5 1.5-1.5h9c.827 0 1.5.673 1.5 1.5s-.673 1.5-1.5 1.5zm-9-2a.5.5 0 0 0 0 1h9a.5.5 0 0 0 0-1h-9z"/><metadata><rdf:RDF xmlns:rdf="http://www.w3.org/1999/02/22-rdf-syntax-ns#" xmlns:rdfs="http://www.w3.org/2000/01/rdf-schema#" xmlns:dc="http://purl.org/dc/elements/1.1/"><rdf:Description about="https://iconscout.com/legal#licenses" dc:title="blogger" dc:description="blogger" dc:publisher="Iconscout" dc:date="2018-01-03" dc:format="image/svg+xml" dc:language="en"><dc:creator><rdf:Bag><rdf:li>Icon 54</rdf:li></rdf:Bag></dc:creator></rdf:Description></rdf:RDF></metadata></svg>