<?xml version="1.0" encoding="UTF-8"?><svg xmlns="http://www.w3.org/2000/svg" xmlns:xlink="http://www.w3.org/1999/xlink" version="1.1" id="Layer_1" x="0px" y="0px" viewBox="0 0 24 24" xml:space="preserve"><path d="M12 24.001c-6.617 0-12-5.383-12-12s5.383-12 12-12 12 5.383 12 12c0 .117-.007.233-.015.348l-.011.174a.5.5 0 0 1-.499.478h-.001a.5.5 0 0 1-.5-.477A9.976 9.976 0 0 0 13 3.001c-5.514 0-10 4.486-10 10a9.977 9.977 0 0 0 9.523 9.975.501.501 0 0 1-.001.999l-.174.011c-.115.007-.231.015-.348.015zm0-23c-6.065 0-11 4.935-11 11 0 3.272 1.436 6.214 3.71 8.231A10.951 10.951 0 0 1 2 13.001c0-6.065 4.935-11 11-11a10.95 10.95 0 0 1 7.231 2.71A10.974 10.974 0 0 0 12 1.001z"/><path d="M14.25 22.501c-4.825 0-8.75-3.925-8.75-8.75s3.925-8.75 8.75-8.75c1.502 0 2.99.393 4.301 1.135a.5.5 0 0 1-.148.926A3.004 3.004 0 0 0 16 10.001c0 1.654 1.346 3 3 3 1.16 0 2.227-.687 2.717-1.749a.482.482 0 0 1 .492-.289.5.5 0 0 1 .442.36c.232.801.349 1.618.349 2.428 0 4.824-3.925 8.75-8.75 8.75zm0-16.5c-4.273 0-7.75 3.477-7.75 7.75s3.477 7.75 7.75 7.75S22 18.024 22 13.751c0-.345-.024-.691-.072-1.038A4 4 0 0 1 19 14.001c-2.206 0-4-1.794-4-4a4.01 4.01 0 0 1 2.031-3.48 7.708 7.708 0 0 0-2.781-.52z"/><metadata><rdf:RDF xmlns:rdf="http://www.w3.org/1999/02/22-rdf-syntax-ns#" xmlns:rdfs="http://www.w3.org/2000/01/rdf-schema#" xmlns:dc="http://purl.org/dc/elements/1.1/"><rdf:Description about="https://iconscout.com/legal#licenses" dc:title="crunchyroll" dc:description="crunchyroll" dc:publisher="Iconscout" dc:date="2018-01-03" dc:format="image/svg+xml" dc:language="en"><dc:creator><rdf:Bag><rdf:li>Icon 54</rdf:li></rdf:Bag></dc:creator></rdf:Description></rdf:RDF></metadata></svg>