<?xml version="1.0" encoding="UTF-8"?><svg xmlns="http://www.w3.org/2000/svg" xmlns:xlink="http://www.w3.org/1999/xlink" version="1.1" id="Layer_1" x="0px" y="0px" viewBox="0 0 24 24" xml:space="preserve"><path d="M12 24C5.383 24 0 18.617 0 12S5.383 0 12 0s12 5.383 12 12c0 2.329-.666 4.577-1.93 6.523l1.877 3.753a.5.5 0 0 1-.618.693l-4.017-1.46A12.023 12.023 0 0 1 12 24zm0-23C5.934 1 1 5.935 1 12s4.935 11 11 11c2.54 0 4.929-.845 6.907-2.444a.498.498 0 0 1 .485-.081l3.099 1.126-1.445-2.891a.5.5 0 0 1 .035-.506A10.938 10.938 0 0 0 23 12c0-6.065-4.935-11-11-11z"/><path d="M12 15c-1.654 0-3-1.346-3-3s1.346-3 3-3 3 1.346 3 3-1.346 3-3 3zm0-5c-1.103 0-2 .897-2 2s.897 2 2 2 2-.897 2-2-.898-2-2-2z"/><path d="M7.74 18.294a1.49 1.49 0 0 1-.784-.224 1.487 1.487 0 0 1-.673-.933l-1.541-6.554a1.501 1.501 0 0 1 1.109-1.802l1.298-.311a5.998 5.998 0 0 1 7.572-1.817l1.687-.405a1.493 1.493 0 0 1 1.137.182c.342.21.581.542.673.933l1.541 6.554a1.502 1.502 0 0 1-1.109 1.802L8.093 18.252a1.527 1.527 0 0 1-.353.042zM12 7c-1.657 0-3.204.82-4.138 2.193a.498.498 0 0 1-.297.206l-1.481.355a.499.499 0 0 0-.369.6l1.541 6.554c.031.13.11.241.225.311a.49.49 0 0 0 .379.06l10.557-2.533a.499.499 0 0 0 .369-.6v-.001l-1.541-6.553a.5.5 0 0 0-.604-.371l-1.872.449a.497.497 0 0 1-.357-.049A5.007 5.007 0 0 0 12 7z"/><metadata><rdf:RDF xmlns:rdf="http://www.w3.org/1999/02/22-rdf-syntax-ns#" xmlns:rdfs="http://www.w3.org/2000/01/rdf-schema#" xmlns:dc="http://purl.org/dc/elements/1.1/"><rdf:Description about="https://iconscout.com/legal#licenses" dc:title="dailybooth" dc:description="dailybooth" dc:publisher="Iconscout" dc:date="2018-01-03" dc:format="image/svg+xml" dc:language="en"><dc:creator><rdf:Bag><rdf:li>Icon 54</rdf:li></rdf:Bag></dc:creator></rdf:Description></rdf:RDF></metadata></svg>