<?xml version="1.0" encoding="UTF-8"?><svg xmlns="http://www.w3.org/2000/svg" xmlns:xlink="http://www.w3.org/1999/xlink" version="1.1" id="Layer_1" x="0px" y="0px" viewBox="0 0 24 24" xml:space="preserve"><path d="M23 12.502H12a.5.5 0 0 1-.5-.5v-11a.5.5 0 0 1 .5-.5h9c1.379 0 2.5 1.122 2.5 2.5v9a.5.5 0 0 1-.5.5zm-10.5-1h10v-8.5c0-.827-.673-1.5-1.5-1.5h-8.5v10z"/><path d="M12 23.502H3a2.503 2.503 0 0 1-2.5-2.5v-9a.5.5 0 0 1 .5-.5h11a.5.5 0 0 1 .5.5v11a.5.5 0 0 1-.5.5zm-10.5-11v8.5c0 .827.673 1.5 1.5 1.5h8.5v-10h-10z"/><metadata><rdf:RDF xmlns:rdf="http://www.w3.org/1999/02/22-rdf-syntax-ns#" xmlns:rdfs="http://www.w3.org/2000/01/rdf-schema#" xmlns:dc="http://purl.org/dc/elements/1.1/"><rdf:Description about="https://iconscout.com/legal#licenses" dc:title="delicious" dc:description="delicious" dc:publisher="Iconscout" dc:date="2018-01-03" dc:format="image/svg+xml" dc:language="en"><dc:creator><rdf:Bag><rdf:li>Icon 54</rdf:li></rdf:Bag></dc:creator></rdf:Description></rdf:RDF></metadata></svg>