<?xml version="1.0" encoding="UTF-8"?><svg xmlns="http://www.w3.org/2000/svg" xmlns:xlink="http://www.w3.org/1999/xlink" version="1.1" id="Layer_1" x="0px" y="0px" viewBox="0 0 24 24" xml:space="preserve"><path d="M12.5 22c-1.249 0-1.5-.574-1.5-1.5 0-1.488 5.034-12.925 6.043-15.202a.5.5 0 0 1 .914.404C15.654 10.901 12 19.515 12 20.5c0 .329.027.422.042.448 0-.009.052.052.458.052 1.134 0 3.268-1.97 4.596-3.794a.498.498 0 0 1 .698-.11.498.498 0 0 1 .11.698C16.846 19.249 14.354 22 12.5 22z"/><path d="M8 22a1.91 1.91 0 0 1-1.47-.653c-.541-.625-.717-1.607-.525-2.919C6.535 14.807 10.498 11 12 11c1.811 0 2 1.066 2 3.5a.5.5 0 0 1-1 0c0-2.5-.212-2.5-1-2.5-.854 0-4.532 3.341-5.005 6.572-.144.983-.04 1.736.292 2.121.176.204.416.307.713.307.92 0 2.707-1.729 3.616-2.82a.5.5 0 0 1 .769.641C12.113 19.146 9.686 22 8 22z"/><path d="M5.5 13a.5.5 0 0 1-.5-.5c0-2.01-.239-3.032-.854-3.646C3.532 8.239 2.509 8 .5 8a.5.5 0 1 1 0-1c2.009 0 3.032-.239 3.646-.854C4.761 5.532 5 4.51 5 2.5a.5.5 0 0 1 1 0c0 2.01.239 3.032.854 3.646C7.468 6.761 8.491 7 10.5 7a.5.5 0 0 1 0 1c-2.009 0-3.032.239-3.646.854C6.239 9.468 6 10.49 6 12.5a.5.5 0 0 1-.5.5zM3.904 7.5c.359.162.676.373.95.647.273.273.484.59.646.949a3.16 3.16 0 0 1 .646-.949c.274-.274.591-.485.95-.647a3.178 3.178 0 0 1-.95-.646 3.173 3.173 0 0 1-.646-.949 3.173 3.173 0 0 1-.646.949 3.178 3.178 0 0 1-.95.646z"/><path d="M11.5 7a.5.5 0 0 1-.5-.5c0-.696-.076-1.068-.253-1.246C10.568 5.076 10.196 5 9.5 5a.5.5 0 1 1 0-1c.696 0 1.068-.076 1.247-.254.177-.177.253-.549.253-1.246a.5.5 0 0 1 1 0c0 .696.076 1.068.253 1.246.179.178.551.254 1.247.254a.5.5 0 0 1 0 1c-.696 0-1.068.076-1.247.254-.177.178-.253.55-.253 1.246a.5.5 0 0 1-.5.5z"/><path d="M20.5 18.5a.5.5 0 0 1-.5-.5c0-1.131-.131-1.725-.454-2.047-.322-.322-.915-.453-2.046-.453a.5.5 0 0 1 0-1c1.131 0 1.724-.131 2.046-.453S20 13.131 20 12a.5.5 0 0 1 1 0c0 1.131.131 1.725.454 2.047s.915.453 2.046.453a.5.5 0 0 1 0 1c-1.131 0-1.724.131-2.046.453-.323.323-.454.916-.454 2.047a.5.5 0 0 1-.5.5zm-.545-3.5a1.984 1.984 0 0 1 .546.546 2.01 2.01 0 0 1 .546-.546 1.984 1.984 0 0 1-.546-.546 2.01 2.01 0 0 1-.546.546z"/><metadata><rdf:RDF xmlns:rdf="http://www.w3.org/1999/02/22-rdf-syntax-ns#" xmlns:rdfs="http://www.w3.org/2000/01/rdf-schema#" xmlns:dc="http://purl.org/dc/elements/1.1/"><rdf:Description about="https://iconscout.com/legal#licenses" dc:title="designmoo" dc:description="designmoo" dc:publisher="Iconscout" dc:date="2018-01-03" dc:format="image/svg+xml" dc:language="en"><dc:creator><rdf:Bag><rdf:li>Icon 54</rdf:li></rdf:Bag></dc:creator></rdf:Description></rdf:RDF></metadata></svg>