<?xml version="1.0" encoding="UTF-8"?><svg xmlns="http://www.w3.org/2000/svg" xmlns:xlink="http://www.w3.org/1999/xlink" version="1.1" id="Layer_1" x="0px" y="0px" viewBox="0 0 24 24" xml:space="preserve"><path d="M12 24C5.383 24 0 18.617 0 12S5.383 0 12 0s12 5.383 12 12-5.383 12-12 12zm0-23C5.935 1 1 5.935 1 12s4.935 11 11 11 11-4.935 11-11S18.065 1 12 1z"/><path d="M12 18.5c-3.584 0-6.5-2.916-6.5-6.5S8.416 5.5 12 5.5s6.5 2.916 6.5 6.5-2.916 6.5-6.5 6.5zm0-12c-3.032 0-5.5 2.467-5.5 5.5s2.468 5.5 5.5 5.5 5.5-2.467 5.5-5.5-2.468-5.5-5.5-5.5z"/><path d="M10.5 6.5A.5.5 0 0 1 10 6V1a.5.5 0 0 1 1 0v5a.5.5 0 0 1-.5.5z"/><path d="M13.5 6.5A.5.5 0 0 1 13 6V1a.5.5 0 0 1 1 0v5a.5.5 0 0 1-.5.5z"/><path d="M23 11h-5a.5.5 0 0 1 0-1h5a.5.5 0 0 1 0 1z"/><path d="M23 14h-5a.5.5 0 0 1 0-1h5a.5.5 0 0 1 0 1z"/><path d="M13.5 23.5a.5.5 0 0 1-.5-.5v-5a.5.5 0 0 1 1 0v5a.5.5 0 0 1-.5.5z"/><path d="M10.5 23.5a.5.5 0 0 1-.5-.5v-5a.5.5 0 0 1 1 0v5a.5.5 0 0 1-.5.5z"/><path d="M6 14H1a.5.5 0 0 1 0-1h5a.5.5 0 0 1 0 1z"/><path d="M6 11H1a.5.5 0 0 1 0-1h5a.5.5 0 0 1 0 1z"/><metadata><rdf:RDF xmlns:rdf="http://www.w3.org/1999/02/22-rdf-syntax-ns#" xmlns:rdfs="http://www.w3.org/2000/01/rdf-schema#" xmlns:dc="http://purl.org/dc/elements/1.1/"><rdf:Description about="https://iconscout.com/legal#licenses" dc:title="designfloat" dc:description="designfloat" dc:publisher="Iconscout" dc:date="2018-01-03" dc:format="image/svg+xml" dc:language="en"><dc:creator><rdf:Bag><rdf:li>Icon 54</rdf:li></rdf:Bag></dc:creator></rdf:Description></rdf:RDF></metadata></svg>