<?xml version="1.0" encoding="UTF-8"?><svg xmlns="http://www.w3.org/2000/svg" xmlns:xlink="http://www.w3.org/1999/xlink" version="1.1" id="Layer_1" x="0px" y="0px" viewBox="0 0 24 24" xml:space="preserve"><path d="M8.5 24.001H5a.5.5 0 0 1-.5-.5v-3a.49.49 0 0 1 .062-.239l5.051-9.261H5a.5.5 0 0 1-.5-.5v-6a.5.5 0 0 1 .5-.5h8.191L15.052.277a.5.5 0 0 1 .447-.276H19a.5.5 0 0 1 .5.5v3a.49.49 0 0 1-.062.239l-5.051 9.261H19a.5.5 0 0 1 .5.5v6a.5.5 0 0 1-.5.5h-8.191l-1.861 3.724a.503.503 0 0 1-.448.276zm-3-1h2.691l1.861-3.724a.5.5 0 0 1 .447-.276h8v-5h-4.954a.499.499 0 0 1-.439-.74L18.5 3.374V1.001h-2.691l-1.861 3.724a.5.5 0 0 1-.447.276h-8v5h4.954a.499.499 0 0 1 .439.74L5.5 20.629v2.372z"/><metadata><rdf:RDF xmlns:rdf="http://www.w3.org/1999/02/22-rdf-syntax-ns#" xmlns:rdfs="http://www.w3.org/2000/01/rdf-schema#" xmlns:dc="http://purl.org/dc/elements/1.1/"><rdf:Description about="https://iconscout.com/legal#licenses" dc:title="deviant,art" dc:description="deviant,art" dc:publisher="Iconscout" dc:date="2018-01-03" dc:format="image/svg+xml" dc:language="en"><dc:creator><rdf:Bag><rdf:li>Icon 54</rdf:li></rdf:Bag></dc:creator></rdf:Description></rdf:RDF></metadata></svg>