<?xml version="1.0" encoding="UTF-8"?><svg xmlns="http://www.w3.org/2000/svg" xmlns:xlink="http://www.w3.org/1999/xlink" version="1.1" id="Layer_1" x="0px" y="0px" viewBox="0 0 24 24" xml:space="preserve"><path d="M5.5 16.002h-4a.5.5 0 0 1-.5-.5v-6a.5.5 0 0 1 .5-.5H5v-3.5a.5.5 0 0 1 1 0v10a.5.5 0 0 1-.5.5zm-3.5-1h3v-5H2v5z"/><path d="M8.5 16.002a.5.5 0 0 1-.5-.5v-6a.5.5 0 0 1 1 0v6a.5.5 0 0 1-.5.5z"/><path d="M15.5 19.002h-4a.5.5 0 0 1 0-1H15v-2.5h-3.5a.5.5 0 0 1-.5-.5v-5.5a.5.5 0 0 1 .5-.5h4a.5.5 0 0 1 .5.5v9a.5.5 0 0 1-.5.5zm-3.5-4.5h3v-4.5h-3v4.5z"/><path d="M22.5 19.002h-4a.5.5 0 0 1 0-1H22v-2.5h-3.5a.5.5 0 0 1-.5-.5v-5.5a.5.5 0 0 1 .5-.5h4a.5.5 0 0 1 .5.5v9a.5.5 0 0 1-.5.5zm-3.5-4.5h3v-4.5h-3v4.5z"/><path d="M8.52 6.002c-.276 0-.505-.224-.505-.5s.219-.5.495-.5h.01a.5.5 0 0 1 0 1z"/><metadata><rdf:RDF xmlns:rdf="http://www.w3.org/1999/02/22-rdf-syntax-ns#" xmlns:rdfs="http://www.w3.org/2000/01/rdf-schema#" xmlns:dc="http://purl.org/dc/elements/1.1/"><rdf:Description about="https://iconscout.com/legal#licenses" dc:title="digg" dc:description="digg" dc:publisher="Iconscout" dc:date="2018-01-03" dc:format="image/svg+xml" dc:language="en"><dc:creator><rdf:Bag><rdf:li>Icon 54</rdf:li></rdf:Bag></dc:creator></rdf:Description></rdf:RDF></metadata></svg>