<?xml version="1.0" encoding="UTF-8"?><svg xmlns="http://www.w3.org/2000/svg" xmlns:xlink="http://www.w3.org/1999/xlink" version="1.1" id="Layer_1" x="0px" y="0px" viewBox="0 0 24 24" xml:space="preserve"><path d="M12 14c-1.103 0-2-.897-2-2s.897-2 2-2 2 .897 2 2-.897 2-2 2zm0-3a1.001 1.001 0 0 0 0 2 1.001 1.001 0 0 0 0-2z"/><path d="M12 14c-1.103 0-2-.897-2-2s.897-2 2-2 2 .897 2 2-.897 2-2 2zm0-3a1.001 1.001 0 0 0 0 2 1.001 1.001 0 0 0 0-2z"/><path d="M18.5 21.384h-3a.5.5 0 0 1-.5-.5V8.923a10.05 10.05 0 0 1-6 0v11.961a.5.5 0 0 1-.5.5h-3a.5.5 0 0 1-.5-.5V3.115a.5.5 0 0 1 .371-.484.506.506 0 0 1 .562.234 7.015 7.015 0 0 0 2.8 2.707 7.001 7.001 0 0 0 6.535-.001 7.017 7.017 0 0 0 2.799-2.706.5.5 0 1 1 .933.25v17.77a.5.5 0 0 1-.5.499zm-2.5-1h2V4.667a7.95 7.95 0 0 1-2.267 1.79 8.106 8.106 0 0 1-7.465.001A8.01 8.01 0 0 1 6 4.667v15.718h2V8.214a.501.501 0 0 1 .685-.464 9.017 9.017 0 0 0 6.63 0 .5.5 0 0 1 .685.464v12.17z"/><metadata><rdf:RDF xmlns:rdf="http://www.w3.org/1999/02/22-rdf-syntax-ns#" xmlns:rdfs="http://www.w3.org/2000/01/rdf-schema#" xmlns:dc="http://purl.org/dc/elements/1.1/"><rdf:Description about="https://iconscout.com/legal#licenses" dc:title="diigo" dc:description="diigo" dc:publisher="Iconscout" dc:date="2018-01-03" dc:format="image/svg+xml" dc:language="en"><dc:creator><rdf:Bag><rdf:li>Icon 54</rdf:li></rdf:Bag></dc:creator></rdf:Description></rdf:RDF></metadata></svg>