<?xml version="1.0" encoding="UTF-8"?><svg xmlns="http://www.w3.org/2000/svg" xmlns:xlink="http://www.w3.org/1999/xlink" version="1.1" id="Layer_1" x="0px" y="0px" viewBox="0 0 24 24" xml:space="preserve"><path d="M12 24.002c-6.617 0-12-5.383-12-12s5.383-12 12-12 12 5.383 12 12-5.383 12-12 12zm0-23c-6.065 0-11 4.935-11 11s4.935 11 11 11 11-4.935 11-11-4.935-11-11-11z"/><path d="M17 22.502a.5.5 0 0 1-.499-.469c-.457-7.313-3.938-14.887-9.312-20.261a.5.5 0 0 1 .707-.707c5.541 5.541 9.131 13.356 9.603 20.905a.5.5 0 0 1-.499.532z"/><path d="M1 11.064a.5.5 0 0 1 0-1c6.742 0 15.437-1.096 18.571-6.32a.5.5 0 0 1 .857.515C17.054 9.883 8 11.064 1 11.064z"/><path d="M4.687 21.044a.499.499 0 0 1-.434-.748c4.227-7.397 12.93-9.76 18.905-7.768a.5.5 0 1 1-.316.948c-5.589-1.862-13.747.364-17.72 7.316a.502.502 0 0 1-.435.252z"/><metadata><rdf:RDF xmlns:rdf="http://www.w3.org/1999/02/22-rdf-syntax-ns#" xmlns:rdfs="http://www.w3.org/2000/01/rdf-schema#" xmlns:dc="http://purl.org/dc/elements/1.1/"><rdf:Description about="https://iconscout.com/legal#licenses" dc:title="dribbble" dc:description="dribbble" dc:publisher="Iconscout" dc:date="2018-01-03" dc:format="image/svg+xml" dc:language="en"><dc:creator><rdf:Bag><rdf:li>Icon 54</rdf:li></rdf:Bag></dc:creator></rdf:Description></rdf:RDF></metadata></svg>