<?xml version="1.0" encoding="UTF-8"?><svg xmlns="http://www.w3.org/2000/svg" xmlns:xlink="http://www.w3.org/1999/xlink" version="1.1" id="Layer_1" x="0px" y="0px" viewBox="0 0 24 24" xml:space="preserve"><path d="M5.5 9.502a.505.505 0 0 1-.313-.109l-5-4a.501.501 0 0 1 .064-.825l7-4a.495.495 0 0 1 .58.061l4.5 4a.5.5 0 0 1-.07.799l-6.5 4a.501.501 0 0 1-.261.074zM1.387 5.071l4.151 3.32 5.627-3.463-3.729-3.314-6.049 3.457z"/><path d="M7.5 17.502a.499.499 0 0 1-.25-.067l-7-4.042a.499.499 0 0 1-.061-.825l5-3.958a.501.501 0 0 1 .595-.019l6.5 4.5a.499.499 0 0 1 .022.805l-4.5 3.5a.494.494 0 0 1-.306.106zm-6.112-4.607L7.459 16.4l3.697-2.875L5.52 9.624l-4.132 3.271z"/><path d="M16.5 17.502a.505.505 0 0 1-.307-.105l-4.5-3.5a.497.497 0 0 1 .022-.805l6.5-4.5a.5.5 0 0 1 .597.021l5 4a.501.501 0 0 1-.064.825l-7 4a.52.52 0 0 1-.248.064zm-3.655-3.977l3.698 2.876 6.071-3.469-4.135-3.308-5.634 3.901z"/><path d="M18.5 9.502a.498.498 0 0 1-.262-.074l-6.5-4a.5.5 0 0 1-.07-.799l4.5-4a.498.498 0 0 1 .58-.061l7 4a.501.501 0 0 1 .064.825l-5 4a.5.5 0 0 1-.312.109zm-5.665-4.573l5.627 3.463 4.151-3.32-6.049-3.457-3.729 3.314z"/><path d="M12 23.502a.502.502 0 0 1-.262-.074l-6.5-4A.5.5 0 0 1 5 19.002v-3a.5.5 0 0 1 1 0v2.721l6 3.692 6-3.692v-2.721a.5.5 0 0 1 1 0v3a.5.5 0 0 1-.238.426l-6.5 4a.502.502 0 0 1-.262.074z"/><metadata><rdf:RDF xmlns:rdf="http://www.w3.org/1999/02/22-rdf-syntax-ns#" xmlns:rdfs="http://www.w3.org/2000/01/rdf-schema#" xmlns:dc="http://purl.org/dc/elements/1.1/"><rdf:Description about="https://iconscout.com/legal#licenses" dc:title="dropbox" dc:description="dropbox" dc:publisher="Iconscout" dc:date="2018-01-03" dc:format="image/svg+xml" dc:language="en"><dc:creator><rdf:Bag><rdf:li>Icon 54</rdf:li></rdf:Bag></dc:creator></rdf:Description></rdf:RDF></metadata></svg>