<?xml version="1.0" encoding="UTF-8"?><svg xmlns="http://www.w3.org/2000/svg" xmlns:xlink="http://www.w3.org/1999/xlink" version="1.1" id="Layer_1" x="0px" y="0px" viewBox="0 0 24 24" xml:space="preserve"><path d="M12 24.001c-6.065 0-11-4.71-11-10.5 0-4.379 2.899-8.337 7.216-9.849 1.693-.974 2.82-3.339 2.831-3.363a.501.501 0 0 1 .827-.119c.021.025 2.229 2.493 4.345 3.636C20.339 5.44 23 9.243 23 13.501c0 5.789-4.935 10.5-11 10.5zm-.389-22.649c-.502.862-1.534 2.381-2.983 3.206C4.631 5.967 2 9.546 2 13.501c0 5.238 4.486 9.5 10 9.5s10-4.262 10-9.5c0-3.854-2.424-7.299-6.176-8.776a.62.62 0 0 1-.053-.024c-1.683-.902-3.358-2.519-4.16-3.349z"/><path d="M9 19.001c-2.206 0-4-1.794-4-4 0-1.927 1.408-4 4.5-4 1.487 0 3.127 1.021 5.847 3.64a.497.497 0 0 1-.015.734c-.417.371-4.143 3.626-6.332 3.626zm.5-7c-2.418 0-3.5 1.507-3.5 3 0 1.443 1.147 3 3 3 1.367 0 3.959-1.934 5.255-3.019-2.242-2.111-3.638-2.981-4.755-2.981z"/><path d="M18.5 18.501c-1.428 0-3.499-2.666-3.9-3.2a.504.504 0 0 1 .109-.707c.729-.522 1.271-.962 1.713-1.32.98-.794 1.571-1.273 2.578-1.273.602 0 2 .292 2 3 0 1.461-.951 3.5-2.5 3.5zm-2.789-3.4c.982 1.219 2.233 2.4 2.789 2.4.855 0 1.5-1.517 1.5-2.5 0-.913-.174-2-1-2-.622 0-.964.252-1.948 1.051-.364.295-.796.645-1.341 1.049z"/><path d="M15.501 20.001a.5.5 0 0 1-.498-.558c.01-.083.015-.236-.06-.32-.068-.077-.23-.122-.444-.122-.674 0-1.105.123-1.597.795a.499.499 0 1 1-.806-.59c.773-1.059 1.612-1.205 2.403-1.205.649 0 1.007.249 1.192.457.25.282.355.663.304 1.102a.497.497 0 0 1-.494.441z"/><path d="M13.332 22.203c-1.319 0-2.645-.308-3.186-.849a.5.5 0 0 1 .707-.707c.678.677 3.994.798 4.793 0a.5.5 0 0 1 .707.707c-.584.585-1.8.849-3.021.849z"/><metadata><rdf:RDF xmlns:rdf="http://www.w3.org/1999/02/22-rdf-syntax-ns#" xmlns:rdfs="http://www.w3.org/2000/01/rdf-schema#" xmlns:dc="http://purl.org/dc/elements/1.1/"><rdf:Description about="https://iconscout.com/legal#licenses" dc:title="drupal" dc:description="drupal" dc:publisher="Iconscout" dc:date="2018-01-03" dc:format="image/svg+xml" dc:language="en"><dc:creator><rdf:Bag><rdf:li>Icon 54</rdf:li></rdf:Bag></dc:creator></rdf:Description></rdf:RDF></metadata></svg>