<?xml version="1.0" encoding="UTF-8"?><svg xmlns="http://www.w3.org/2000/svg" xmlns:xlink="http://www.w3.org/1999/xlink" version="1.1" id="Layer_1" x="0px" y="0px" viewBox="0 0 24 24" xml:space="preserve"><circle cx="1" cy="16" r="1"/><circle cx="8" cy="13" r="1"/><path d="M22 9c-1.103 0-2-.897-2-2s.897-2 2-2 2 .897 2 2-.897 2-2 2zm0-3a1.001 1.001 0 0 0 0 2 1.001 1.001 0 0 0 0-2z"/><circle cx="20" cy="15" r="1"/><circle cx="11" cy="5" r="1"/><path d="M11.5 20c-.827 0-1.5-.673-1.5-1.5s.673-1.5 1.5-1.5 1.5.673 1.5 1.5-.673 1.5-1.5 1.5zm0-2a.5.5 0 1 0 .002 1.002A.5.5 0 0 0 11.5 18z"/><path d="M1.5 16a.5.5 0 0 1-.372-.835l9-10a.5.5 0 1 1 .743.67l-7.578 8.42 17.022-6.72a.497.497 0 0 1 .648.281.498.498 0 0 1-.281.648l-19 7.5A.458.458 0 0 1 1.5 16z"/><path transform="matrix(0.6644 0.7474 -0.7474 0.6644 12.6767 -8.2284)" d="M9.479 9.5h12.042v1H9.479z"/><path transform="matrix(0.9702 0.2423 -0.2423 0.9702 3.4198 -4.8063)" d="M20.75 8.408h1v6.185h-1z"/><path d="M13 18.5a.5.5 0 0 1-.18-.966l6.5-2.5a.5.5 0 0 1 .359.933l-6.5 2.5A.485.485 0 0 1 13 18.5z"/><path d="M10.5 19a.482.482 0 0 1-.134-.019l-9-2.5a.5.5 0 1 1 .268-.963l9 2.5A.5.5 0 0 1 10.5 19z"/><path d="M20.5 6.5a.525.525 0 0 1-.056-.003l-9-1a.5.5 0 0 1-.442-.553.51.51 0 0 1 .552-.441l9 1a.5.5 0 0 1-.054.997z"/><path d="M11.5 18a.5.5 0 0 1-.499-.479l-.5-12A.5.5 0 0 1 10.979 5c.276.004.509.203.521.479l.5 12a.501.501 0 0 1-.479.521H11.5z"/><path d="M12.5 18a.5.5 0 0 1-.363-.844l8.5-9a.5.5 0 1 1 .727.687l-8.5 9A.497.497 0 0 1 12.5 18z"/><path d="M11 18a.5.5 0 0 1-.417-.223l-3-4.5a.502.502 0 0 1-.052-.453l3-8a.5.5 0 0 1 .936.352l-2.91 7.76 2.858 4.287A.5.5 0 0 1 11 18z"/><metadata><rdf:RDF xmlns:rdf="http://www.w3.org/1999/02/22-rdf-syntax-ns#" xmlns:rdfs="http://www.w3.org/2000/01/rdf-schema#" xmlns:dc="http://purl.org/dc/elements/1.1/"><rdf:Description about="https://iconscout.com/legal#licenses" dc:title="dzone" dc:description="dzone" dc:publisher="Iconscout" dc:date="2018-01-03" dc:format="image/svg+xml" dc:language="en"><dc:creator><rdf:Bag><rdf:li>Icon 54</rdf:li></rdf:Bag></dc:creator></rdf:Description></rdf:RDF></metadata></svg>