<?xml version="1.0" encoding="UTF-8"?><svg xmlns="http://www.w3.org/2000/svg" xmlns:xlink="http://www.w3.org/1999/xlink" version="1.1" id="Layer_1" x="0px" y="0px" viewBox="0 0 24 24" xml:space="preserve"><path d="M12 24.002c-7.558 0-11-5.184-11-10 0-3.446 1.56-5.764 2.229-6.601a.983.983 0 0 1 1.095-.318.963.963 0 0 1 .655.914c.026 2.768.417 4.957 1.077 6.197C6.812 5.468 14.963.002 18.5.002c.879 0 1.272.423 1.448.778l.142.286C21.318 3.537 23 6.922 23 12.002c0 5.535-2.881 12-11 12zm-7.521-16l-.5.001A10.036 10.036 0 0 0 2 14.002c0 3.343 2.106 9 10 9 7.381 0 10-5.926 10-11 0-4.845-1.556-7.976-2.806-10.491l-.143-.287c-.035-.072-.109-.222-.552-.222-2.772 0-11.5 5.302-11.5 14.5a.5.5 0 0 1-.788.409C4.32 14.585 4 10.39 3.978 8.007l.501-.005z"/><metadata><rdf:RDF xmlns:rdf="http://www.w3.org/1999/02/22-rdf-syntax-ns#" xmlns:rdfs="http://www.w3.org/2000/01/rdf-schema#" xmlns:dc="http://purl.org/dc/elements/1.1/"><rdf:Description about="https://iconscout.com/legal#licenses" dc:title="envato" dc:description="envato" dc:publisher="Iconscout" dc:date="2018-01-03" dc:format="image/svg+xml" dc:language="en"><dc:creator><rdf:Bag><rdf:li>Icon 54</rdf:li></rdf:Bag></dc:creator></rdf:Description></rdf:RDF></metadata></svg>