<?xml version="1.0" encoding="UTF-8"?><svg xmlns="http://www.w3.org/2000/svg" xmlns:xlink="http://www.w3.org/1999/xlink" version="1.1" id="Layer_1" x="0px" y="0px" viewBox="0 0 24 24" xml:space="preserve"><path d="M6.993 5h-4a.5.5 0 0 1-.354-.853l4-4a.497.497 0 0 1 .545-.108.498.498 0 0 1 .309.461v4a.5.5 0 0 1-.5.5zM4.2 4h2.293V1.707L4.2 4z"/><path d="M18.993 13a.525.525 0 0 1-.104-.011c-1.031-.219-3.902-.974-4.024-1.006a.5.5 0 0 1-.373-.483c0-.845.905-2.5 2-2.5 1.688 0 3 2.792 3 3.5a.503.503 0 0 1-.499.5zm-3.426-1.866c.627.163 1.79.464 2.677.679-.37-.76-1.093-1.813-1.751-1.813-.275 0-.744.619-.926 1.134z"/><path d="M16.993 24h-2.5c-2.467 0-4-1.532-4-4 0-2.491 3.549-3 4.5-3a.5.5 0 0 1 .5.5v2a.5.5 0 0 1-.5.5c-.985 0-1.5.252-1.5.5 0 .286.528.5 1 .5h2c.394 0 1-.858 1-2 0-1.157-1.144-3-2.5-3-1.007 0-1.923-.458-2.565-1.015-.095.622-.321 1.265-.858 1.805-.811.815-2.144 1.21-4.077 1.21-4.746 0-6-5.56-6-8.5 0-2.276 1.115-3.325 1.162-3.368A.498.498 0 0 1 2.993 6h4c.827 0 1.5-.673 1.5-1.5v-2c0-1.659.841-2.5 2.5-2.5 1.227 0 2.35 1.134 3.169 1.961l.039.039h2.792c1.21 0 2.242.423 3.067 1.257 2.535 2.562 2.473 8.345 2.439 11.452l-.006.791c0 3.357-2.464 8.5-5.5 8.5zm-2.5-5.959c-1.017.134-3 .623-3 1.959 0 1.906 1.093 3 3 3h2.5c2.173 0 4.5-4.402 4.5-7.5l.006-.802c.03-2.75.091-8.473-2.15-10.738-.64-.645-1.411-.96-2.356-.96h-3a.505.505 0 0 1-.354-.146l-.188-.188C12.795 2.002 11.803 1 10.993 1c-.95 0-1.5.245-1.5 1.5v2c0 1.379-1.122 2.5-2.5 2.5H3.216c-.23.293-.723 1.087-.723 2.5 0 .075.057 7.5 5 7.5 1.63 0 2.764-.308 3.368-.915.642-.646.637-1.574.633-2.394v-.187-.005a.5.5 0 0 1 1 0c.062.304 1.097 1.5 2.5 1.5 2.03 0 3.5 2.39 3.5 4 0 1.626-.916 3-2 3h-2c-.97 0-2-.525-2-1.5 0-.325.153-1.327 2-1.48v-.978z"/><metadata><rdf:RDF xmlns:rdf="http://www.w3.org/1999/02/22-rdf-syntax-ns#" xmlns:rdfs="http://www.w3.org/2000/01/rdf-schema#" xmlns:dc="http://purl.org/dc/elements/1.1/"><rdf:Description about="https://iconscout.com/legal#licenses" dc:title="evernote" dc:description="evernote" dc:publisher="Iconscout" dc:date="2018-01-03" dc:format="image/svg+xml" dc:language="en"><dc:creator><rdf:Bag><rdf:li>Icon 54</rdf:li></rdf:Bag></dc:creator></rdf:Description></rdf:RDF></metadata></svg>