<?xml version="1.0" encoding="UTF-8"?><svg xmlns="http://www.w3.org/2000/svg" xmlns:xlink="http://www.w3.org/1999/xlink" version="1.1" id="Layer_1" x="0px" y="0px" viewBox="0 0 24 24" xml:space="preserve"><path d="M13 24.002h-3a.5.5 0 0 1-.5-.5v-10.5H6a.5.5 0 0 1-.5-.5v-3a.5.5 0 0 1 .5-.5h3.5v-3.5c0-3.033 2.468-5.5 5.5-5.5h3a.5.5 0 0 1 .5.5v3a.5.5 0 0 1-.5.5h-3c-.827 0-1.5.673-1.5 1.5v3.5H18c.161 0 .312.077.405.208.095.13.12.298.069.451l-1 3a.501.501 0 0 1-.475.342h-3.5v10.5a.498.498 0 0 1-.499.499zm-2.5-1h2v-10.5a.5.5 0 0 1 .5-.5h3.64l.667-2H13a.5.5 0 0 1-.5-.5v-4c0-1.378 1.121-2.5 2.5-2.5h2.5v-2H15a4.505 4.505 0 0 0-4.5 4.5v4a.5.5 0 0 1-.5.5H6.5v2H10a.5.5 0 0 1 .5.5v10.5z"/><metadata><rdf:RDF xmlns:rdf="http://www.w3.org/1999/02/22-rdf-syntax-ns#" xmlns:rdfs="http://www.w3.org/2000/01/rdf-schema#" xmlns:dc="http://purl.org/dc/elements/1.1/"><rdf:Description about="https://iconscout.com/legal#licenses" dc:title="facebook" dc:description="facebook" dc:publisher="Iconscout" dc:date="2018-01-03" dc:format="image/svg+xml" dc:language="en"><dc:creator><rdf:Bag><rdf:li>Icon 54</rdf:li></rdf:Bag></dc:creator></rdf:Description></rdf:RDF></metadata></svg>