<?xml version="1.0" encoding="UTF-8"?><svg xmlns="http://www.w3.org/2000/svg" xmlns:xlink="http://www.w3.org/1999/xlink" version="1.1" id="Layer_1" x="0px" y="0px" viewBox="0 0 24 24" xml:space="preserve"><path d="M12 24c-6.729 0-12-2.196-12-5 0-1.358 1.193-2.598 3.373-3.518C1.646 7.471 6.89 2.351 9.151.143A.501.501 0 0 1 10 .5c0 .882.676 2.289.937 2.757C10.996 3.337 13 6.244 13 8.5c0 .865-.18 1.659-.548 2.403.817-.17 1.529-.558 1.996-1.106.511-.6.699-1.346.559-2.217a.501.501 0 0 1 .716-.528c4.5 2.228 5.225 5.718 5.275 8.599C22.963 16.561 24 17.715 24 19c0 2.804-5.271 5-12 5zM9.157 1.542C6.764 3.957 2.747 8.7 4.441 15.669a.5.5 0 0 1-.307.585C2.143 17.018 1 18.019 1 19c0 1.892 4.518 4 11 4s11-2.108 11-4c0-.893-.983-1.827-2.698-2.564a.498.498 0 0 1-.302-.458c-.003-2.634-.496-5.564-3.956-7.615a3.494 3.494 0 0 1-.834 2.083C14.38 11.419 12.994 12 11.5 12a.5.5 0 0 1-.402-.797C11.907 10.112 12 9.138 12 8.5c0-1.941-1.892-4.688-1.911-4.715-.052-.089-.643-1.157-.932-2.243zM12 20c-3.309 0-6-2.579-6-5.75 0-1.214.395-2.379 1.143-3.367a.5.5 0 1 1 .897.258C8.231 13.341 9.934 15 12 15s3.769-1.659 3.96-3.859a.5.5 0 0 1 .897-.258A5.543 5.543 0 0 1 18 14.25c0 3.171-2.691 5.75-6 5.75zm-4.673-7.434A4.476 4.476 0 0 0 7 14.25C7 16.869 9.243 19 12 19s5-2.131 5-4.75c0-.582-.111-1.15-.327-1.685C15.973 14.594 14.143 16 12 16s-3.973-1.406-4.673-3.434z"/><metadata><rdf:RDF xmlns:rdf="http://www.w3.org/1999/02/22-rdf-syntax-ns#" xmlns:rdfs="http://www.w3.org/2000/01/rdf-schema#" xmlns:dc="http://purl.org/dc/elements/1.1/"><rdf:Description about="https://iconscout.com/legal#licenses" dc:title="feedburner" dc:description="feedburner" dc:publisher="Iconscout" dc:date="2018-01-03" dc:format="image/svg+xml" dc:language="en"><dc:creator><rdf:Bag><rdf:li>Icon 54</rdf:li></rdf:Bag></dc:creator></rdf:Description></rdf:RDF></metadata></svg>