<?xml version="1.0" encoding="UTF-8"?><svg xmlns="http://www.w3.org/2000/svg" xmlns:xlink="http://www.w3.org/1999/xlink" version="1.1" id="Layer_1" x="0px" y="0px" viewBox="0 0 24 24" xml:space="preserve"><path d="M6.5 12.502c-2.757 0-5-2.243-5-5s2.243-5 5-5 5 2.243 5 5-2.243 5-5 5zm0-9c-2.206 0-4 1.794-4 4s1.794 4 4 4 4-1.794 4-4-1.794-4-4-4z"/><path d="M17.5 12.502c-2.757 0-5-2.243-5-5s2.243-5 5-5 5 2.243 5 5-2.243 5-5 5zm0-9c-2.206 0-4 1.794-4 4s1.794 4 4 4 4-1.794 4-4-1.794-4-4-4z"/><path d="M3 21.502a.5.5 0 0 1-.5-.5v-4c0-.827.673-1.5 1.5-1.5h.5a.5.5 0 0 1 0 1H4a.5.5 0 0 0-.5.5v4a.5.5 0 0 1-.5.5z"/><path d="M4.5 18.502H2a.5.5 0 0 1 0-1h2.5a.5.5 0 0 1 0 1z"/><path d="M6 21.502a.5.5 0 0 1-.5-.5v-5a.5.5 0 0 1 1 0v5a.5.5 0 0 1-.5.5z"/><path d="M8 21.502a.5.5 0 0 1-.5-.5v-3a.5.5 0 0 1 1 0v3a.5.5 0 0 1-.5.5z"/><path d="M11.5 21.502c-1.103 0-2-.897-2-2s.897-2 2-2c1.309 0 1.836.619 1.893.69a.5.5 0 0 1-.785.62c-.001 0-.294-.31-1.107-.31a1.001 1.001 0 0 0 0 2c.76 0 1.137-.345 1.152-.359a.501.501 0 0 1 .704.015.497.497 0 0 1-.003.698c-.067.066-.681.646-1.854.646z"/><path d="M15 21.502a.5.5 0 0 1-.5-.5v-5a.5.5 0 0 1 1 0v5a.5.5 0 0 1-.5.5z"/><path d="M17 21.502a.502.502 0 0 1-.354-.146l-2-2a.504.504 0 0 1-.145-.403.504.504 0 0 1 .221-.367l1.5-1a.5.5 0 1 1 .554.832l-.992.662 1.568 1.569a.5.5 0 0 1-.352.853z"/><path d="M19 21.502a.5.5 0 0 1-.5-.5v-3a.5.5 0 0 1 1 0v3a.5.5 0 0 1-.5.5z"/><path d="M19 20.502a.5.5 0 0 1-.5-.5c0-1.378 1.121-2.5 2.5-2.5a.5.5 0 0 1 0 1c-.827 0-1.5.673-1.5 1.5a.5.5 0 0 1-.5.5z"/><path d="M8.02 16.502a.505.505 0 0 1-.505-.5c0-.276.219-.5.495-.5h.01a.5.5 0 0 1 0 1z"/><metadata><rdf:RDF xmlns:rdf="http://www.w3.org/1999/02/22-rdf-syntax-ns#" xmlns:rdfs="http://www.w3.org/2000/01/rdf-schema#" xmlns:dc="http://purl.org/dc/elements/1.1/"><rdf:Description about="https://iconscout.com/legal#licenses" dc:title="flickr" dc:description="flickr" dc:publisher="Iconscout" dc:date="2018-01-03" dc:format="image/svg+xml" dc:language="en"><dc:creator><rdf:Bag><rdf:li>Icon 54</rdf:li></rdf:Bag></dc:creator></rdf:Description></rdf:RDF></metadata></svg>