<?xml version="1.0" encoding="UTF-8"?><svg xmlns="http://www.w3.org/2000/svg" xmlns:xlink="http://www.w3.org/1999/xlink" version="1.1" id="Layer_1" x="0px" y="0px" viewBox="0 0 24 24" xml:space="preserve"><path d="M5.5 17.5C2.468 17.5 0 15.033 0 12s2.468-5.5 5.5-5.5S11 8.968 11 12s-2.468 5.5-5.5 5.5zm0-10C3.019 7.5 1 9.519 1 12s2.019 4.5 4.5 4.5S10 14.482 10 12 7.981 7.5 5.5 7.5z"/><path d="M18.5 17.5c-3.032 0-5.5-2.468-5.5-5.5s2.468-5.5 5.5-5.5S24 8.968 24 12s-2.468 5.5-5.5 5.5zm0-10C16.019 7.5 14 9.519 14 12s2.019 4.5 4.5 4.5S23 14.482 23 12s-2.019-4.5-4.5-4.5z"/><metadata><rdf:RDF xmlns:rdf="http://www.w3.org/1999/02/22-rdf-syntax-ns#" xmlns:rdfs="http://www.w3.org/2000/01/rdf-schema#" xmlns:dc="http://purl.org/dc/elements/1.1/"><rdf:Description about="https://iconscout.com/legal#licenses" dc:title="flickr" dc:description="flickr" dc:publisher="Iconscout" dc:date="2018-01-03" dc:format="image/svg+xml" dc:language="en"><dc:creator><rdf:Bag><rdf:li>Icon 54</rdf:li></rdf:Bag></dc:creator></rdf:Description></rdf:RDF></metadata></svg>