<?xml version="1.0" encoding="UTF-8"?><svg xmlns="http://www.w3.org/2000/svg" xmlns:xlink="http://www.w3.org/1999/xlink" version="1.1" id="Layer_1" x="0px" y="0px" viewBox="0 0 24 24" xml:space="preserve"><path d="M12 24C5.383 24 0 18.617 0 12S5.383 0 12 0s12 5.383 12 12-5.383 12-12 12zm0-23C5.935 1 1 5.935 1 12s4.935 11 11 11 11-4.935 11-11S18.065 1 12 1zm0 18c-3.859 0-7-3.141-7-7s3.141-7 7-7c.607 0 1.229.086 1.846.254a.5.5 0 0 1 .183.871A2.733 2.733 0 0 0 13 8.25 2.752 2.752 0 0 0 15.75 11c.82 0 1.595-.375 2.125-1.029a.512.512 0 0 1 .491-.174c.184.039.33.177.38.357.168.618.254 1.239.254 1.846 0 3.859-3.141 7-7 7zm0-13c-3.309 0-6 2.691-6 6s2.691 6 6 6 6-2.691 6-6c0-.24-.016-.484-.047-.729A3.7 3.7 0 0 1 15.75 12 3.755 3.755 0 0 1 12 8.25c0-.8.259-1.567.729-2.203A5.816 5.816 0 0 0 12 6z"/><metadata><rdf:RDF xmlns:rdf="http://www.w3.org/1999/02/22-rdf-syntax-ns#" xmlns:rdfs="http://www.w3.org/2000/01/rdf-schema#" xmlns:dc="http://purl.org/dc/elements/1.1/"><rdf:Description about="https://iconscout.com/legal#licenses" dc:title="foodspotting" dc:description="foodspotting" dc:publisher="Iconscout" dc:date="2018-01-03" dc:format="image/svg+xml" dc:language="en"><dc:creator><rdf:Bag><rdf:li>Icon 54</rdf:li></rdf:Bag></dc:creator></rdf:Description></rdf:RDF></metadata></svg>