<?xml version="1.0" encoding="UTF-8"?><svg xmlns="http://www.w3.org/2000/svg" xmlns:xlink="http://www.w3.org/1999/xlink" version="1.1" id="Layer_1" x="0px" y="0px" viewBox="0 0 24 24" xml:space="preserve"><path d="M21.5 23.987h-8a.5.5 0 0 1-.5-.5v-9.5h-2v9.5a.5.5 0 0 1-.5.5h-8a.5.5 0 0 1-.462-.691l9.5-23c.154-.374.77-.374.924 0l9.5 23a.502.502 0 0 1-.462.691zm-7.5-1h6.753L12 1.797l-8.753 21.19H10v-9.5a.5.5 0 0 1 .5-.5h3a.5.5 0 0 1 .5.5v9.5z"/><path d="M10.5 18.987a.502.502 0 0 1-.354-.146l-2-2a.5.5 0 0 1 .707-.707l2 2a.5.5 0 0 1-.353.853z"/><path d="M13.5 16.987a.5.5 0 0 1-.277-.916l1.5-1a.5.5 0 1 1 .554.832l-1.5 1a.494.494 0 0 1-.277.084z"/><path d="M13.5 19.487a.5.5 0 0 1-.223-.947l3-1.5a.5.5 0 0 1 .447.895l-3 1.5a.517.517 0 0 1-.224.052z"/><metadata><rdf:RDF xmlns:rdf="http://www.w3.org/1999/02/22-rdf-syntax-ns#" xmlns:rdfs="http://www.w3.org/2000/01/rdf-schema#" xmlns:dc="http://purl.org/dc/elements/1.1/"><rdf:Description about="https://iconscout.com/legal#licenses" dc:title="forest" dc:description="forest" dc:publisher="Iconscout" dc:date="2018-01-03" dc:format="image/svg+xml" dc:language="en"><dc:creator><rdf:Bag><rdf:li>Icon 54</rdf:li></rdf:Bag></dc:creator></rdf:Description></rdf:RDF></metadata></svg>