<?xml version="1.0" encoding="UTF-8"?><svg xmlns="http://www.w3.org/2000/svg" xmlns:xlink="http://www.w3.org/1999/xlink" version="1.1" id="Layer_1" x="0px" y="0px" viewBox="0 0 24 24" xml:space="preserve"><path d="M5.473 23.501a1.879 1.879 0 0 1-1.876-1.876V3.001c0-1.378 1.122-2.5 2.5-2.5h12.806a1.498 1.498 0 0 1 1.477 1.764l-1.996 11.176a2.497 2.497 0 0 1-2.461 2.061h-2.599l-6.439 7.359c-.357.407-.871.64-1.412.64zm.624-22c-.827 0-1.5.673-1.5 1.5v18.624a.877.877 0 0 0 1.535.577l6.588-7.53a.498.498 0 0 1 .376-.171h2.826c.728 0 1.349-.52 1.477-1.236l1.996-11.176c.036-.2-.053-.342-.109-.409s-.18-.179-.383-.179H6.097z"/><path d="M18.597 8.501h-7.5a.5.5 0 0 1 0-1h7.5a.5.5 0 0 1 0 1z"/><metadata><rdf:RDF xmlns:rdf="http://www.w3.org/1999/02/22-rdf-syntax-ns#" xmlns:rdfs="http://www.w3.org/2000/01/rdf-schema#" xmlns:dc="http://purl.org/dc/elements/1.1/"><rdf:Description about="https://iconscout.com/legal#licenses" dc:title="foursquare" dc:description="foursquare" dc:publisher="Iconscout" dc:date="2018-01-03" dc:format="image/svg+xml" dc:language="en"><dc:creator><rdf:Bag><rdf:li>Icon 54</rdf:li></rdf:Bag></dc:creator></rdf:Description></rdf:RDF></metadata></svg>