<?xml version="1.0" encoding="UTF-8"?><svg xmlns="http://www.w3.org/2000/svg" xmlns:xlink="http://www.w3.org/1999/xlink" version="1.1" id="Layer_1" x="0px" y="0px" viewBox="0 0 24 24" xml:space="preserve"><path d="M17.5 24h-14a.504.504 0 0 1-.354-.146l-1-1A.504.504 0 0 1 2 22.5v-2a.5.5 0 0 1 .5-.5H15v-3H2.5a.504.504 0 0 1-.354-.146l-1-1A.504.504 0 0 1 1 15.5v-14c0-.133.053-.26.146-.354l1-1A.504.504 0 0 1 2.5 0h15c.133 0 .26.053.354.146l1 1A.504.504 0 0 1 19 1.5v8.644l3.043-6.847A.5.5 0 1 1 23 3.5v6a.5.5 0 0 1-.065.248L19 16.633V22.5c0 .133-.053.26-.146.354l-1 1A.504.504 0 0 1 17.5 24zM3.707 23h13.586l.707-.707V16.5a.5.5 0 0 1 .065-.248L22 9.367V5.856l-3.043 6.847A.5.5 0 1 1 18 12.5V1.707L17.293 1H2.707L2 1.707v13.586l.707.707H15.5a.5.5 0 0 1 .5.5v4a.5.5 0 0 1-.5.5H3v1.293l.707.707zM15.5 14h-11a.5.5 0 0 1-.5-.5v-10a.5.5 0 0 1 .5-.5h11a.5.5 0 0 1 .5.5v10a.5.5 0 0 1-.5.5zM5 13h10V4H5v9z"/><metadata><rdf:RDF xmlns:rdf="http://www.w3.org/1999/02/22-rdf-syntax-ns#" xmlns:rdfs="http://www.w3.org/2000/01/rdf-schema#" xmlns:dc="http://purl.org/dc/elements/1.1/"><rdf:Description about="https://iconscout.com/legal#licenses" dc:title="gdgt" dc:description="gdgt" dc:publisher="Iconscout" dc:date="2018-01-03" dc:format="image/svg+xml" dc:language="en"><dc:creator><rdf:Bag><rdf:li>Icon 54</rdf:li></rdf:Bag></dc:creator></rdf:Description></rdf:RDF></metadata></svg>