<?xml version="1.0" encoding="UTF-8"?><svg xmlns="http://www.w3.org/2000/svg" xmlns:xlink="http://www.w3.org/1999/xlink" version="1.1" id="Layer_1" x="0px" y="0px" viewBox="0 0 24 24" xml:space="preserve"><path d="M12 24.001c-6.617 0-12-5.383-12-12s5.383-12 12-12 12 5.383 12 12-5.383 12-12 12zm0-23c-6.065 0-11 4.935-11 11s4.935 11 11 11 11-4.935 11-11-4.935-11-11-11z"/><path d="M18.25 16.001c-1.163 0-1.595-.982-2.013-1.933-.189-.431-.385-.875-.657-1.296-1.281-1.98-3.601-3.513-5.58-3.742v3.47c0 1.93-1.57 3.5-3.5 3.5a3.48 3.48 0 0 1-3.386-2.662 8.893 8.893 0 0 1-.094-.991 3.424 3.424 0 0 1-.02-.346c0-4.962 4.038-9 9-9s9 4.038 9 9c0 .117-.011.234-.022.351a8.492 8.492 0 0 1-.125 1.265c-.4 1.445-1.441 2.384-2.603 2.384zm-8.75-8c2.717 0 5.593 2.179 6.92 4.229.315.487.537.991.732 1.436.426.969.631 1.335 1.098 1.335.707 0 1.361-.645 1.628-1.604.055-.323.092-.712.102-1.108.011-.122.02-.205.02-.288 0-4.411-3.589-8-8-8s-8 3.589-8 8c0 .094.009.189.018.284.011.312.04.595.077.868.264 1.068 1.256 1.849 2.405 1.849 1.378 0 2.5-1.122 2.5-2.5v-4a.5.5 0 0 1 .5-.501z"/><metadata><rdf:RDF xmlns:rdf="http://www.w3.org/1999/02/22-rdf-syntax-ns#" xmlns:rdfs="http://www.w3.org/2000/01/rdf-schema#" xmlns:dc="http://purl.org/dc/elements/1.1/"><rdf:Description about="https://iconscout.com/legal#licenses" dc:title="geooveshark" dc:description="geooveshark" dc:publisher="Iconscout" dc:date="2018-01-03" dc:format="image/svg+xml" dc:language="en"><dc:creator><rdf:Bag><rdf:li>Icon 54</rdf:li></rdf:Bag></dc:creator></rdf:Description></rdf:RDF></metadata></svg>