<?xml version="1.0" encoding="UTF-8"?><svg xmlns="http://www.w3.org/2000/svg" xmlns:xlink="http://www.w3.org/1999/xlink" version="1.1" id="Layer_1" x="0px" y="0px" viewBox="0 0 24 24" xml:space="preserve"><path d="M7.335 24.005c-1.427 0-4.16-.132-5.717-1.669C.876 21.603.5 20.649.5 19.5c0-3.931 4.539-5.249 7.584-5.466-.428-.827-.67-1.975-.048-3.091C5.719 10.679 2.5 9.441 2.5 6c0-3.897 3.349-6 6.5-6 3.235 0 6.5 1.546 6.5 5 0 2.25-1.639 3.875-2.835 5.062-.519.514-1.165 1.155-1.165 1.438.01.199.723.719 1.194 1.063C14.21 13.667 16.5 15.335 16.5 18.5c0 5.351-8.415 5.5-8.5 5.5l-.215.002c-.128.001-.279.003-.45.003zM9 1C6.789 1 3.5 2.332 3.5 6c0 3.955 5.275 4 5.5 4a.5.5 0 0 1 .354.854c-1.538 1.538-.046 3.241.019 3.313A.498.498 0 0 1 9 15c-.075 0-7.5.051-7.5 4.5 0 .884.269 1.579.82 2.125 1.444 1.427 4.456 1.391 5.453 1.377L8 23c.075 0 7.5-.193 7.5-4.5 0-2.656-1.962-4.085-3.395-5.129-.932-.679-1.605-1.17-1.605-1.871 0-.7.645-1.339 1.461-2.148C13.093 8.23 14.5 6.834 14.5 5c0-3.158-3.457-4-5.5-4z"/><path d="M9 23c-2.537 0-5.5-1.047-5.5-4 0-2.947 3.426-5 6.5-5 .09 0 .178.024.255.07.434.258 4.245 2.588 4.245 4.93 0 2.393-2.844 4-5.5 4zm.863-7.999C7.303 15.06 4.5 16.751 4.5 19c0 2.214 2.424 3 4.5 3 2.124 0 4.5-1.283 4.5-3 0-1.456-2.521-3.312-3.637-3.999z"/><path d="M9.233 9.945c-1.81 0-3.583-1.699-4.138-4.101C4.477 3.157 5.61.593 7.625.128c2.01-.465 4.158 1.342 4.779 4.028.619 2.686-.515 5.25-2.529 5.715-.213.05-.428.074-.642.074zm-.951-8.892a1.93 1.93 0 0 0-.433.049C6.373 1.444 5.574 3.47 6.07 5.619c.496 2.148 2.102 3.625 3.58 3.279 1.477-.341 2.275-2.367 1.779-4.516-.448-1.941-1.8-3.329-3.147-3.329z"/><path d="M15.5 1H9a.5.5 0 0 1 0-1h6.5a.5.5 0 0 1 0 1z"/><path d="M20 14a.5.5 0 0 1-.5-.5v-6a.5.5 0 0 1 1 0v6a.5.5 0 0 1-.5.5z"/><path d="M23 11h-6a.5.5 0 0 1 0-1h6a.5.5 0 0 1 0 1z"/><metadata><rdf:RDF xmlns:rdf="http://www.w3.org/1999/02/22-rdf-syntax-ns#" xmlns:rdfs="http://www.w3.org/2000/01/rdf-schema#" xmlns:dc="http://purl.org/dc/elements/1.1/"><rdf:Description about="https://iconscout.com/legal#licenses" dc:title="google" dc:description="google" dc:publisher="Iconscout" dc:date="2018-01-03" dc:format="image/svg+xml" dc:language="en"><dc:creator><rdf:Bag><rdf:li>Icon 54</rdf:li></rdf:Bag></dc:creator></rdf:Description></rdf:RDF></metadata></svg>