<?xml version="1.0" encoding="UTF-8"?><svg xmlns="http://www.w3.org/2000/svg" xmlns:xlink="http://www.w3.org/1999/xlink" version="1.1" id="Layer_1" x="0px" y="0px" viewBox="0 0 24 24" xml:space="preserve"><path d="M4.5 22.003a.502.502 0 0 1-.426-.238l-4-6.5a.498.498 0 0 1-.01-.506l7-12.5a.499.499 0 0 1 .426-.256c.158-.016.342.087.436.238l4 6.5a.498.498 0 0 1 .01.506l-7 12.5a.5.5 0 0 1-.426.256H4.5zm-3.42-7.012l3.4 5.525 6.44-11.502-3.4-5.524-6.44 11.501z"/><path d="M20 22.003H7a.502.502 0 0 1-.433-.752l3.5-6a.5.5 0 0 1 .432-.248h13a.502.502 0 0 1 .433.752l-3.5 6a.5.5 0 0 1-.432.248zm-12.129-1h11.842l2.917-5H10.787l-2.916 5z"/><path d="M23.5 14.003h-7a.5.5 0 0 1-.431-.246l-6.5-11A.5.5 0 0 1 10 2.003h7a.5.5 0 0 1 .431.246l6.5 11a.498.498 0 0 1-.431.754zm-6.715-1h5.839l-5.909-10h-5.839l5.909 10z"/><metadata><rdf:RDF xmlns:rdf="http://www.w3.org/1999/02/22-rdf-syntax-ns#" xmlns:rdfs="http://www.w3.org/2000/01/rdf-schema#" xmlns:dc="http://purl.org/dc/elements/1.1/"><rdf:Description about="https://iconscout.com/legal#licenses" dc:title="google,drive" dc:description="google,drive" dc:publisher="Iconscout" dc:date="2018-01-03" dc:format="image/svg+xml" dc:language="en"><dc:creator><rdf:Bag><rdf:li>Icon 54</rdf:li></rdf:Bag></dc:creator></rdf:Description></rdf:RDF></metadata></svg>