<?xml version="1.0" encoding="UTF-8"?><svg xmlns="http://www.w3.org/2000/svg" xmlns:xlink="http://www.w3.org/1999/xlink" version="1.1" id="Layer_1" x="0px" y="0px" viewBox="0 0 24 24" xml:space="preserve"><path d="M10.002 22.001a2.503 2.503 0 0 1-2.348-3.371c.067-.181.163-.36.293-.548.972-1.821 1.551-3.423 1.551-6.082s-.58-4.261-1.581-6.13c-.1-.14-.196-.318-.263-.499a2.505 2.505 0 0 1 1.474-3.215 2.504 2.504 0 0 1 3.2 1.437c1.053 1.912 2.17 5.114 2.17 8.407 0 3.312-1.13 6.53-2.188 8.438-.348.952-1.297 1.563-2.308 1.563zM9.996 3a1.502 1.502 0 0 0-1.404 2.022c.038.103.095.208.178.328 1.079 2.006 1.729 3.793 1.729 6.65s-.65 4.644-1.699 6.603a1.805 1.805 0 0 0-.208.375c-.288.775.109 1.64.884 1.928a1.503 1.503 0 0 0 1.928-.884c1.028-1.867 2.094-4.901 2.094-8.022s-1.065-6.155-2.063-7.954a.524.524 0 0 1-.031-.068A1.502 1.502 0 0 0 9.996 3z"/><path d="M19.002 24.001a2.503 2.503 0 0 1-2.348-3.371c1.082-1.962 1.844-5.563 1.844-8.63s-.762-6.667-1.813-8.561c-.511-1.361.15-2.803 1.442-3.283a2.505 2.505 0 0 1 3.201 1.437c1.204 2.206 2.17 7.48 2.17 10.407 0 2.94-.976 8.252-2.188 10.438-.348.952-1.297 1.563-2.308 1.563zM18.996 1a1.502 1.502 0 0 0-1.405 2.023c1.091 1.956 1.906 5.761 1.906 8.978s-.815 7.021-1.938 9.046c-.257.707.14 1.572.916 1.86a1.503 1.503 0 0 0 1.928-.884c1.053-1.911 2.094-6.935 2.094-10.022s-1.041-8.111-2.063-9.954a.524.524 0 0 1-.031-.068A1.5 1.5 0 0 0 18.996 1z"/><path d="M18.999 12a.498.498 0 0 1-.43-.245c-.023-.039-2.39-3.968-7.002-7.557a.5.5 0 1 1 .615-.789c4.77 3.711 7.149 7.669 7.248 7.835a.5.5 0 0 1-.431.756z"/><path d="M17.124 21.304a.5.5 0 0 1-.492-.595c.536-2.766-2.24-7.107-2.988-7.855a.5.5 0 0 1 .707-.707c.705.705 3.911 5.406 3.262 8.752a.497.497 0 0 1-.489.405z"/><path d="M8.124 19.304a.5.5 0 0 1-.494-.582c.192-1.165-2.125-6.771-6.093-9.195C.395 8.673.171 7.103.998 6s2.398-1.327 3.5-.5c2.717 2.07 5.39 4.901 5.963 6.312a.5.5 0 0 1-.926.376c-.499-1.228-3.134-3.98-5.64-5.891a1.504 1.504 0 0 0-2.097.303 1.502 1.502 0 0 0 .3 2.1c3.983 2.432 6.826 8.33 6.519 10.185a.501.501 0 0 1-.493.419z"/><metadata><rdf:RDF xmlns:rdf="http://www.w3.org/1999/02/22-rdf-syntax-ns#" xmlns:rdfs="http://www.w3.org/2000/01/rdf-schema#" xmlns:dc="http://purl.org/dc/elements/1.1/"><rdf:Description about="https://iconscout.com/legal#licenses" dc:title="google,walet" dc:description="google,walet" dc:publisher="Iconscout" dc:date="2018-01-03" dc:format="image/svg+xml" dc:language="en"><dc:creator><rdf:Bag><rdf:li>Icon 54</rdf:li></rdf:Bag></dc:creator></rdf:Description></rdf:RDF></metadata></svg>