<?xml version="1.0" encoding="UTF-8"?><svg xmlns="http://www.w3.org/2000/svg" xmlns:xlink="http://www.w3.org/1999/xlink" version="1.1" id="Layer_1" x="0px" y="0px" viewBox="0 0 24 24" xml:space="preserve"><path d="M8.5 20.251c-1.748 0-3.069-.767-3.622-2.103-.279-.673-.318-1.429-.141-2.024C3.029 15.586 1 13.374 1 10.251c0-4.241 4.355-6.5 7.5-6.5 3.302 0 4.5 1.794 4.5 3 0 1.242-1.03 2.5-3 2.5-1.563 0-1.741-1.292-1.807-1.897C7.73 7.603 7 8.365 7 10.251c0 1.485.559 2.088 1 2.333v-1.833a.5.5 0 0 1 .5-.5h4a.5.5 0 0 1 .5.5v5c0 2.902-1.598 4.5-4.5 4.5zm0-15.5c-2.267 0-6.5 1.613-6.5 5.5 0 3.102 2.266 5 3.5 5a.5.5 0 0 1 .354.854c-.214.214-.355.928-.052 1.661.229.555.886 1.486 2.698 1.486 2.355 0 3.5-1.145 3.5-3.5v-4.5H9v2a.5.5 0 0 1-.523.5C8.452 13.749 6 13.596 6 10.251c0-3.022 1.685-4 2.5-4 .583 0 .648.618.683.95.077.73.177 1.05.817 1.05 1.374 0 2-.777 2-1.5 0-.773-.95-2-3.5-2z"/><path d="M8.167 17.343c-.146 0-.332-.051-.521-.239-.274-.274-.315-.543-.302-.72.034-.422.377-.67.627-.852.065-.047.13-.09.175-.136a.5.5 0 0 1 .854.365c-.028 1.308-.456 1.48-.597 1.536a.61.61 0 0 1-.236.046z"/><path d="M17.5 16.251c-3.032 0-5.5-2.019-5.5-4.5s2.468-4.5 5.5-4.5 5.5 2.019 5.5 4.5-2.468 4.5-5.5 4.5zm0-8c-2.481 0-4.5 1.57-4.5 3.5s2.019 3.5 4.5 3.5 4.5-1.57 4.5-3.5-2.019-3.5-4.5-3.5z"/><path d="M17.5 14.251a.5.5 0 0 1-.5-.5v-4a.5.5 0 0 1 1 0v4a.5.5 0 0 1-.5.5z"/><metadata><rdf:RDF xmlns:rdf="http://www.w3.org/1999/02/22-rdf-syntax-ns#" xmlns:rdfs="http://www.w3.org/2000/01/rdf-schema#" xmlns:dc="http://purl.org/dc/elements/1.1/"><rdf:Description about="https://iconscout.com/legal#licenses" dc:title="gowala" dc:description="gowala" dc:publisher="Iconscout" dc:date="2018-01-03" dc:format="image/svg+xml" dc:language="en"><dc:creator><rdf:Bag><rdf:li>Icon 54</rdf:li></rdf:Bag></dc:creator></rdf:Description></rdf:RDF></metadata></svg>