<?xml version="1.0" encoding="UTF-8"?><svg xmlns="http://www.w3.org/2000/svg" xmlns:xlink="http://www.w3.org/1999/xlink" version="1.1" id="Layer_1" x="0px" y="0px" viewBox="0 0 24 24" xml:space="preserve"><path d="M12 24a.498.498 0 0 1-.5-.5v-2.512c-5.559-.262-10-4.866-10-10.488C1.5 4.71 6.21 0 12 0s10.5 4.71 10.5 10.5c0 5.797-4.549 11.717-10.354 13.479A.52.52 0 0 1 12 24zm0-23c-5.238 0-9.5 4.262-9.5 9.5S6.762 20 12 20a.5.5 0 0 1 .5.5v2.305c5.019-1.854 9-7.229 9-12.305C21.5 5.262 17.238 1 12 1z"/><path d="M10 14a.5.5 0 0 1-.5-.5V12H7a.5.5 0 0 1-.5-.5v-4A.5.5 0 0 1 7 7h4a.5.5 0 0 1 .5.5v4c-.002.067-.05 1.328-1.158 2.365A.504.504 0 0 1 10 14zm-2.5-3H10c.272 0 .494.219.5.49V8h-3v3z"/><path d="M16 14a.5.5 0 0 1-.5-.5V12H13a.5.5 0 0 1-.5-.5v-4A.5.5 0 0 1 13 7h4a.5.5 0 0 1 .5.5v4c-.002.067-.05 1.328-1.158 2.365A.504.504 0 0 1 16 14zm-2.5-3H16c.272 0 .494.219.5.49V8h-3v3z"/><metadata><rdf:RDF xmlns:rdf="http://www.w3.org/1999/02/22-rdf-syntax-ns#" xmlns:rdfs="http://www.w3.org/2000/01/rdf-schema#" xmlns:dc="http://purl.org/dc/elements/1.1/"><rdf:Description about="https://iconscout.com/legal#licenses" dc:title="hangout" dc:description="hangout" dc:publisher="Iconscout" dc:date="2018-01-03" dc:format="image/svg+xml" dc:language="en"><dc:creator><rdf:Bag><rdf:li>Icon 54</rdf:li></rdf:Bag></dc:creator></rdf:Description></rdf:RDF></metadata></svg>