<?xml version="1.0" encoding="UTF-8"?><svg xmlns="http://www.w3.org/2000/svg" xmlns:xlink="http://www.w3.org/1999/xlink" version="1.1" id="Layer_1" x="0px" y="0px" viewBox="0 0 24 24" xml:space="preserve"><path d="M12 15.001c-1.654 0-3-1.346-3-3s1.346-3 3-3 3 1.346 3 3-1.346 3-3 3zm0-5c-1.103 0-2 .897-2 2s.897 2 2 2 2-.897 2-2-.897-2-2-2z"/><path d="M14 10.501a.5.5 0 0 1-.354-.853l3.5-3.5c.859-.859.857-1.502.854-2.475v-.172c0-.934-.325-2.5-2.5-2.5-2.19 0-3.5 1.78-3.5 3.5 0 1.868.178 3.028.493 4.918a.5.5 0 1 1-.986.164C11.192 7.698 11 6.444 11 4.501c0-2.212 1.684-4.5 4.5-4.5 2.58 0 3.5 1.808 3.5 3.5v.169c.004 1.044.007 2.031-1.146 3.184l-3.5 3.5a.5.5 0 0 1-.354.147z"/><path d="M8.5 24.001c-2.58 0-3.5-1.808-3.5-3.5v-.169c-.004-1.044-.007-2.031 1.146-3.184l3.5-3.5a.5.5 0 0 1 .707.707l-3.5 3.5c-.858.858-.856 1.501-.853 2.474v.172c0 .934.325 2.5 2.5 2.5 2.19 0 3.5-1.78 3.5-3.5 0-1.868-.178-3.028-.493-4.918a.5.5 0 1 1 .986-.164c.315 1.885.507 3.139.507 5.082 0 2.212-1.684 4.5-4.5 4.5z"/><path d="M4.5 13.001c-2.212 0-4.5-1.683-4.5-4.5 0-2.581 1.808-3.5 3.5-3.5h.169c1.057-.002 2.032-.006 3.185 1.147l3.5 3.5a.5.5 0 0 1-.707.707l-3.5-3.5c-.858-.859-1.52-.85-2.474-.854H3.5c-.934 0-2.5.325-2.5 2.5 0 2.191 1.779 3.5 3.5 3.5 1.867 0 3.028-.178 4.918-.493a.5.5 0 1 1 .164.986c-1.885.315-3.14.507-5.082.507z"/><path d="M20.166 19.002c-.984 0-1.928-.055-3.02-1.147l-3.5-3.5a.5.5 0 0 1 .707-.707l3.5 3.5c.858.859 1.523.856 2.474.854h.173c.934 0 2.5-.325 2.5-2.5 0-2.191-1.779-3.5-3.5-3.5-1.867 0-3.028.178-4.918.493a.5.5 0 1 1-.164-.986c1.885-.314 3.14-.507 5.082-.507 2.212 0 4.5 1.683 4.5 4.5 0 2.581-1.808 3.5-3.5 3.5h-.334z"/><path d="M19.5 12.001a.5.5 0 0 1 0-1c.552 0 2.5-.599 2.5-2.5 0-.436-.188-.784-.572-1.064-.978-.71-2.889-.747-3.773-.46a.5.5 0 1 1-.309-.951c1.115-.362 3.356-.352 4.671.603.643.468.983 1.115.983 1.872 0 2.443-2.317 3.5-3.5 3.5z"/><path d="M5.022 18.196c-1.042 0-2.221-.228-3.039-.823C1.34 16.905 1 16.258 1 15.501c0-2.443 2.317-3.5 3.5-3.5a.5.5 0 0 1 0 1c-.552 0-2.5.599-2.5 2.5 0 .436.188.784.572 1.064.979.71 2.889.748 3.773.46a.5.5 0 1 1 .309.951c-.421.137-1.001.22-1.632.22z"/><path d="M6.5 7.001a.502.502 0 0 1-.476-.346c-.351-1.087-.338-3.375.604-4.671.469-.643 1.115-.983 1.872-.983 2.443 0 3.5 2.318 3.5 3.5a.5.5 0 0 1-1 0c0-.551-.599-2.5-2.5-2.5-.436 0-.783.187-1.063.572-.71.977-.747 2.888-.461 3.774a.5.5 0 0 1-.476.654z"/><path d="M15.5 23.001c-2.443 0-3.5-2.318-3.5-3.5a.5.5 0 0 1 1 0c0 .551.599 2.5 2.5 2.5.436 0 .783-.187 1.063-.572.71-.977.747-2.888.461-3.774a.5.5 0 1 1 .951-.307c.352 1.087.339 3.375-.604 4.67-.468.643-1.114.983-1.871.983z"/><path d="M3.5 17.501a.5.5 0 0 1-.5-.5v-4a.5.5 0 0 1 1 0v4a.5.5 0 0 1-.5.5z"/><path d="M5.5 18.001a.5.5 0 0 1-.5-.5v-4.5a.5.5 0 0 1 1 0v4.5a.5.5 0 0 1-.5.5z"/><path d="M7.5 17.001a.5.5 0 0 1-.5-.5v-4a.5.5 0 0 1 1 0v4a.5.5 0 0 1-.5.5z"/><path d="M9.5 15.001a.5.5 0 0 1-.5-.5v-2a.5.5 0 0 1 1 0v2a.5.5 0 0 1-.5.5z"/><metadata><rdf:RDF xmlns:rdf="http://www.w3.org/1999/02/22-rdf-syntax-ns#" xmlns:rdfs="http://www.w3.org/2000/01/rdf-schema#" xmlns:dc="http://purl.org/dc/elements/1.1/"><rdf:Description about="https://iconscout.com/legal#licenses" dc:title="icq" dc:description="icq" dc:publisher="Iconscout" dc:date="2018-01-03" dc:format="image/svg+xml" dc:language="en"><dc:creator><rdf:Bag><rdf:li>Icon 54</rdf:li></rdf:Bag></dc:creator></rdf:Description></rdf:RDF></metadata></svg>