<?xml version="1.0" encoding="UTF-8"?><svg xmlns="http://www.w3.org/2000/svg" xmlns:xlink="http://www.w3.org/1999/xlink" version="1.1" id="Layer_1" x="0px" y="0px" viewBox="0 0 24 24" xml:space="preserve"><path d="M17.509 24.002c-.256 0-.514-.024-.771-.075a3.972 3.972 0 0 1-2.553-1.69l-3.684-5.461v3.225c0 2.206-1.794 4-4 4s-4-1.794-4-4v-16c0-2.206 1.794-4 4-4s4 1.794 4 4v3.225l3.684-5.461A3.967 3.967 0 0 1 16.738.076a3.968 3.968 0 0 1 3 .61 4.004 4.004 0 0 1 1.079 5.553l-3.887 5.763 3.887 5.763a4.005 4.005 0 0 1-1.079 5.553 3.98 3.98 0 0 1-2.229.684zm-7.508-9.361c.163 0 .32.08.415.22l4.598 6.817a2.979 2.979 0 0 0 1.915 1.268 2.979 2.979 0 0 0 2.25-.458c.665-.448 1.115-1.128 1.268-1.915s-.01-1.586-.458-2.25l-4.076-6.042a.501.501 0 0 1 0-.56l4.076-6.042c.448-.664.611-1.463.458-2.25s-.603-1.466-1.268-1.915-1.462-.61-2.25-.458a2.981 2.981 0 0 0-1.915 1.267L10.416 9.14a.502.502 0 0 1-.915-.28V4c0-1.654-1.346-3-3-3s-3 1.346-3 3v16c0 1.654 1.346 3 3 3s3-1.346 3-3v-4.86a.5.5 0 0 1 .5-.499z"/><metadata><rdf:RDF xmlns:rdf="http://www.w3.org/1999/02/22-rdf-syntax-ns#" xmlns:rdfs="http://www.w3.org/2000/01/rdf-schema#" xmlns:dc="http://purl.org/dc/elements/1.1/"><rdf:Description about="https://iconscout.com/legal#licenses" dc:title="kickstarter" dc:description="kickstarter" dc:publisher="Iconscout" dc:date="2018-01-03" dc:format="image/svg+xml" dc:language="en"><dc:creator><rdf:Bag><rdf:li>Icon 54</rdf:li></rdf:Bag></dc:creator></rdf:Description></rdf:RDF></metadata></svg>