<?xml version="1.0" encoding="UTF-8"?><svg xmlns="http://www.w3.org/2000/svg" xmlns:xlink="http://www.w3.org/1999/xlink" version="1.1" id="Layer_1" x="0px" y="0px" viewBox="0 0 24 24" xml:space="preserve"><path d="M7.25 20.002c-3.998 0-7.25-3.589-7.25-8s3.252-8 7.25-8 7.25 3.589 7.25 8c0 2.768 1.31 6 5 6 1.597 0 3.5-.434 3.5-2.5 0-1.526-1.619-2.346-3.333-3.213C17.864 11.375 16 10.431 16 8.502c0-2.191 1.309-3.5 3.5-3.5 1.619 0 3.5 1.529 3.5 3.5a.5.5 0 0 1-1 0c0-1.385-1.368-2.5-2.5-2.5-1.141 0-2.5.434-2.5 2.5 0 1.315 1.515 2.082 3.119 2.895 1.819.92 3.881 1.964 3.881 4.105 0 2.224-1.64 3.5-4.5 3.5-4.145 0-6-3.516-6-7 0-3.86-2.804-7-6.25-7S1 8.142 1 12.002s2.804 7 6.25 7c2.148 0 4.12-1.214 5.276-3.247a.5.5 0 1 1 .87.494c-1.336 2.35-3.634 3.753-6.146 3.753z"/><metadata><rdf:RDF xmlns:rdf="http://www.w3.org/1999/02/22-rdf-syntax-ns#" xmlns:rdfs="http://www.w3.org/2000/01/rdf-schema#" xmlns:dc="http://purl.org/dc/elements/1.1/"><rdf:Description about="https://iconscout.com/legal#licenses" dc:title="last,fm" dc:description="last,fm" dc:publisher="Iconscout" dc:date="2018-01-03" dc:format="image/svg+xml" dc:language="en"><dc:creator><rdf:Bag><rdf:li>Icon 54</rdf:li></rdf:Bag></dc:creator></rdf:Description></rdf:RDF></metadata></svg>