<?xml version="1.0" encoding="UTF-8"?><svg xmlns="http://www.w3.org/2000/svg" xmlns:xlink="http://www.w3.org/1999/xlink" version="1.1" id="Layer_1" x="0px" y="0px" viewBox="0 0 24 24" xml:space="preserve"><path d="M16.56 11a.5.5 0 0 1-.5-.5v-4c0-.275-.225-.5-.5-.5s-.5.225-.5.5v4a.5.5 0 0 1-.5.5h-5a.5.5 0 0 1-.5-.5v-4c0-.275-.225-.5-.5-.5s-.5.225-.5.5v4a.5.5 0 0 1-.5.5h-5a.5.5 0 0 1-.5-.5V.5a.5.5 0 0 1 .5-.5h5a.5.5 0 0 1 .5.5v.519c1.705-1.304 4.247-1.329 6 .001.87-.66 1.92-1.02 3-1.02 2.757 0 5 2.243 5 5a.5.5 0 0 1-1 0c0-2.206-1.794-4-4-4-.975 0-1.921.369-2.665 1.039a.5.5 0 0 1-.67 0A3.984 3.984 0 0 0 11.06 1a3.972 3.972 0 0 0-3.109 1.516.5.5 0 1 1-.891-.313V1h-4v9h4V6.5c0-.827.673-1.5 1.5-1.5s1.5.673 1.5 1.5V10h4V6.5c0-.827.673-1.5 1.5-1.5s1.5.673 1.5 1.5v4a.5.5 0 0 1-.5.5z"/><path d="M21.56 12.5a.5.5 0 0 1-.5-.5V5a.5.5 0 0 1 1 0v7a.5.5 0 0 1-.5.5z"/><path d="M5.56 16h-4c-.827 0-1.5-.673-1.5-1.5v-3c0-.827.673-1.5 1.5-1.5h4c.827 0 1.5.673 1.5 1.5v3c0 .827-.673 1.5-1.5 1.5zm-4-5c-.275 0-.5.225-.5.5v3c0 .275.225.5.5.5h4c.275 0 .5-.225.5-.5v-3c0-.275-.225-.5-.5-.5h-4z"/><path d="M5.56 24h-4c-.827 0-1.5-.673-1.5-1.5v-6c0-.827.673-1.5 1.5-1.5h4c.827 0 1.5.673 1.5 1.5v6c0 .827-.673 1.5-1.5 1.5zm-4-8c-.275 0-.5.225-.5.5v6c0 .275.225.5.5.5h4c.275 0 .5-.225.5-.5v-6c0-.275-.225-.5-.5-.5h-4z"/><path d="M11.56 24h-4c-.827 0-1.5-.673-1.5-1.5v-11c0-.827.673-1.5 1.5-1.5h7c.367 0 .723.138 1.003.387.324.309.497.7.497 1.113v4c0 .827-.673 1.5-1.5 1.5h-1.5v5.5c0 .827-.673 1.5-1.5 1.5zm-4-13c-.275 0-.5.225-.5.5v11c0 .275.225.5.5.5h4c.275 0 .5-.225.5-.5v-6a.5.5 0 0 1 .5-.5h2c.275 0 .5-.225.5-.5v-4a.53.53 0 0 0-.175-.378.486.486 0 0 0-.325-.122h-7z"/><path d="M17.06 24a6.947 6.947 0 0 1-4.848-1.961.497.497 0 0 1-.152-.359V16.5a.5.5 0 0 1 .5-.5h2c.275 0 .5-.225.5-.5v-4a.53.53 0 0 0-.175-.378.5.5 0 0 1 .204-.841 6.616 6.616 0 0 1 2.381-.259 6.961 6.961 0 0 1 6.461 5.677.496.496 0 0 1-.152.459 7.04 7.04 0 0 1-6.201 1.685 6.027 6.027 0 0 0 4.64 2.64.5.5 0 0 1 .367.806A6.962 6.962 0 0 1 17.06 24zm-4-2.537a5.949 5.949 0 0 0 4 1.537 5.95 5.95 0 0 0 4.12-1.646 7.024 7.024 0 0 1-5.082-4.163.5.5 0 0 1 .654-.653c2.037.85 4.46.479 6.138-.931a5.968 5.968 0 0 0-5.488-4.589 5.37 5.37 0 0 0-1.399.073c.038.132.058.269.058.408v4c0 .827-.673 1.5-1.5 1.5h-1.5v4.464z"/><path d="M19.06 16a.498.498 0 0 1-.485-.379l-.5-2a.5.5 0 0 1 .97-.242l.5 2a.5.5 0 0 1-.485.621z"/><path d="M20.56 15.5a.498.498 0 0 1-.485-.379l-.5-2a.5.5 0 0 1 .97-.242l.5 2a.5.5 0 0 1-.485.621z"/><metadata><rdf:RDF xmlns:rdf="http://www.w3.org/1999/02/22-rdf-syntax-ns#" xmlns:rdfs="http://www.w3.org/2000/01/rdf-schema#" xmlns:dc="http://purl.org/dc/elements/1.1/"><rdf:Description about="https://iconscout.com/legal#licenses" dc:title="mirc" dc:description="mirc" dc:publisher="Iconscout" dc:date="2018-01-03" dc:format="image/svg+xml" dc:language="en"><dc:creator><rdf:Bag><rdf:li>Icon 54</rdf:li></rdf:Bag></dc:creator></rdf:Description></rdf:RDF></metadata></svg>