<?xml version="1.0" encoding="UTF-8"?><svg xmlns="http://www.w3.org/2000/svg" xmlns:xlink="http://www.w3.org/1999/xlink" version="1.1" id="Layer_1" x="0px" y="0px" viewBox="0 0 24 24" xml:space="preserve"><path d="M18.5 9.002c-2.481 0-4.5-2.019-4.5-4.5s2.019-4.5 4.5-4.5S23 2.02 23 4.502s-2.019 4.5-4.5 4.5zm0-8c-1.93 0-3.5 1.57-3.5 3.5s1.57 3.5 3.5 3.5 3.5-1.57 3.5-3.5-1.57-3.5-3.5-3.5z"/><path d="M10 7.002c-1.654 0-3-1.346-3-3s1.346-3 3-3 3 1.346 3 3-1.346 3-3 3zm0-5c-1.103 0-2 .897-2 2s.897 2 2 2 2-.897 2-2-.897-2-2-2z"/><path d="M3.5 7.002c-1.378 0-2.5-1.122-2.5-2.5s1.122-2.5 2.5-2.5S6 3.124 6 4.502s-1.122 2.5-2.5 2.5zm0-4c-.827 0-1.5.673-1.5 1.5s.673 1.5 1.5 1.5S5 5.329 5 4.502s-.673-1.5-1.5-1.5z"/><path d="M6.5 17.002h-6a.5.5 0 0 1-.5-.5v-5c0-1.93 1.57-3.5 3.5-3.5s3.5 1.57 3.5 3.5v5a.5.5 0 0 1-.5.5zm-5.5-1h5v-4.5c0-1.378-1.122-2.5-2.5-2.5S1 10.124 1 11.502v4.5z"/><path d="M13.5 20.002h-7a.5.5 0 0 1-.5-.5v-7.5c0-2.206 1.794-4 4-4s4 1.794 4 4v7.5a.5.5 0 0 1-.5.5zm-6.5-1h6v-7c0-1.654-1.346-3-3-3s-3 1.346-3 3v7z"/><path d="M23.5 24.002h-10a.5.5 0 0 1-.5-.5v-8c0-3.033 2.467-5.5 5.5-5.5s5.5 2.467 5.5 5.5v8a.5.5 0 0 1-.5.5zm-9.5-1h9v-7.5c0-2.481-2.019-4.5-4.5-4.5s-4.5 2.019-4.5 4.5v7.5z"/><metadata><rdf:RDF xmlns:rdf="http://www.w3.org/1999/02/22-rdf-syntax-ns#" xmlns:rdfs="http://www.w3.org/2000/01/rdf-schema#" xmlns:dc="http://purl.org/dc/elements/1.1/"><rdf:Description about="https://iconscout.com/legal#licenses" dc:title="my,space" dc:description="my,space" dc:publisher="Iconscout" dc:date="2018-01-03" dc:format="image/svg+xml" dc:language="en"><dc:creator><rdf:Bag><rdf:li>Icon 54</rdf:li></rdf:Bag></dc:creator></rdf:Description></rdf:RDF></metadata></svg>