<?xml version="1.0" encoding="UTF-8"?><svg xmlns="http://www.w3.org/2000/svg" xmlns:xlink="http://www.w3.org/1999/xlink" version="1.1" id="Layer_1" x="0px" y="0px" viewBox="0 0 24 24" xml:space="preserve"><path d="M12 13.002c-3.584 0-6.5-2.916-6.5-6.5s2.916-6.5 6.5-6.5 6.5 2.916 6.5 6.5-2.916 6.5-6.5 6.5zm0-12c-3.032 0-5.5 2.467-5.5 5.5s2.468 5.5 5.5 5.5 5.5-2.467 5.5-5.5-2.468-5.5-5.5-5.5z"/><path d="M12 10.002c-1.93 0-3.5-1.57-3.5-3.5s1.57-3.5 3.5-3.5 3.5 1.57 3.5 3.5-1.57 3.5-3.5 3.5zm0-6c-1.379 0-2.5 1.122-2.5 2.5s1.121 2.5 2.5 2.5 2.5-1.122 2.5-2.5-1.121-2.5-2.5-2.5z"/><path d="M16.5 24.001a1.993 1.993 0 0 1-1.414-.585L12 20.221l-3.08 3.188a2.001 2.001 0 0 1-3.42-1.407c0-.535.208-1.037.586-1.414l3.021-2.957a10.968 10.968 0 0 1-.544-.151 11.55 11.55 0 0 1-2.931-1.398A2.523 2.523 0 0 1 4.5 13.98c0-.718.38-1.336 1.016-1.655a1.903 1.903 0 0 1 2.003.188c2.605 1.948 6.357 1.948 8.963 0a1.905 1.905 0 0 1 2.003-.188 1.814 1.814 0 0 1 1.016 1.655c0 .845-.424 1.631-1.133 2.102a11.526 11.526 0 0 1-2.928 1.397c-.177.055-.359.105-.547.152l3.018 2.953c.382.381.59.883.59 1.418a1.997 1.997 0 0 1-2.001 1.999zM12 19.002c.136 0 .266.055.359.153l3.439 3.561c.367.365 1.029.372 1.408-.006a.997.997 0 0 0 0-1.414l-3.683-3.603a.498.498 0 0 1 .265-.85c.48-.083.937-.19 1.354-.318a10.546 10.546 0 0 0 2.671-1.275c.429-.285.686-.759.686-1.269a.825.825 0 0 0-.464-.761.9.9 0 0 0-.955.094c-1.478 1.104-3.234 1.688-5.081 1.688s-3.604-.583-5.081-1.688a.898.898 0 0 0-.955-.094.823.823 0 0 0-.463.76c0 .509.257.983.686 1.269.826.549 1.727.978 2.674 1.276.415.127.871.234 1.352.317a.502.502 0 0 1 .265.85L6.79 21.298c-.186.186-.29.437-.29.704s.104.518.293.707a1.023 1.023 0 0 0 1.414 0l3.434-3.554a.494.494 0 0 1 .359-.153z"/><metadata><rdf:RDF xmlns:rdf="http://www.w3.org/1999/02/22-rdf-syntax-ns#" xmlns:rdfs="http://www.w3.org/2000/01/rdf-schema#" xmlns:dc="http://purl.org/dc/elements/1.1/"><rdf:Description about="https://iconscout.com/legal#licenses" dc:title="odnoklassniki" dc:description="odnoklassniki" dc:publisher="Iconscout" dc:date="2018-01-03" dc:format="image/svg+xml" dc:language="en"><dc:creator><rdf:Bag><rdf:li>Icon 54</rdf:li></rdf:Bag></dc:creator></rdf:Description></rdf:RDF></metadata></svg>