<?xml version="1.0" encoding="UTF-8"?><svg xmlns="http://www.w3.org/2000/svg" xmlns:xlink="http://www.w3.org/1999/xlink" version="1.1" id="Layer_1" x="0px" y="0px" viewBox="0 0 24 24" xml:space="preserve"><path d="M8 24.001c-1.652 0-2.8-1.094-2.848-1.141A.5.5 0 0 1 5 22.501v-3a.498.498 0 0 1 .801-.398c.491.371 1.409.825 1.816.62.247-.124.383-.557.383-1.222v-11a.5.5 0 0 1 .5-.5h3a.5.5 0 0 1 .5.5v5.636c2.236.669 4.705.353 6.379-.838C19.424 11.556 20 10.562 20 9.501c0-3.033-3.589-5.5-8-5.5s-8 2.467-8 5.5c0 1.054.44 2.08 1.273 2.967a.5.5 0 0 1-.074.75l-2.436 1.733a.5.5 0 0 1-.668-.08C.725 13.288 0 11.432 0 9.501c0-5.238 5.383-9.5 12-9.5s12 4.262 12 9.5c0 2.472-1.041 4.644-2.932 6.116-2.262 1.76-5.463 2.289-9.068 1.515v2.37c0 2.787-2.33 4.499-4 4.499zm-2-1.732c.31.24 1.059.732 2 .732 1.224 0 3-1.363 3-3.5v-3a.5.5 0 0 1 .623-.485c3.557.901 6.69.477 8.831-1.188C22.096 13.549 23 11.658 23 9.501c0-4.687-4.935-8.5-11-8.5S1 4.814 1 9.501c0 1.547.539 3.048 1.563 4.365l1.609-1.145C3.403 11.745 3 10.642 3 9.501c0-3.584 4.037-6.5 9-6.5s9 2.916 9 6.5c0 1.394-.725 2.677-2.042 3.613-2.013 1.431-5.005 1.769-7.622.859a.5.5 0 0 1-.336-.472v-5.5H9v10.5c0 1.096-.315 1.809-.938 2.117-.66.33-1.469.071-2.062-.225v1.876z"/><metadata><rdf:RDF xmlns:rdf="http://www.w3.org/1999/02/22-rdf-syntax-ns#" xmlns:rdfs="http://www.w3.org/2000/01/rdf-schema#" xmlns:dc="http://purl.org/dc/elements/1.1/"><rdf:Description about="https://iconscout.com/legal#licenses" dc:title="path" dc:description="path" dc:publisher="Iconscout" dc:date="2018-01-03" dc:format="image/svg+xml" dc:language="en"><dc:creator><rdf:Bag><rdf:li>Icon 54</rdf:li></rdf:Bag></dc:creator></rdf:Description></rdf:RDF></metadata></svg>