<?xml version="1.0" encoding="UTF-8"?><svg xmlns="http://www.w3.org/2000/svg" xmlns:xlink="http://www.w3.org/1999/xlink" version="1.1" id="Layer_1" x="0px" y="0px" viewBox="0 0 24 24" xml:space="preserve"><path d="M12 24.002c-6.617 0-12-5.383-12-12s5.383-12 12-12 12 5.383 12 12-5.383 12-12 12zm0-23c-6.065 0-11 4.935-11 11s4.935 11 11 11 11-4.935 11-11-4.935-11-11-11z"/><path d="M17.5 17.002a.5.5 0 0 1-.5-.5v-14.5a.5.5 0 0 1 1 0v14.5a.5.5 0 0 1-.5.5z"/><path d="M17.5 11.002a.496.496 0 0 1-.334-.128l-10-9a.501.501 0 0 1 .668-.744l10 9a.5.5 0 0 1-.334.872z"/><path d="M1.5 16.002a.5.5 0 0 1-.344-.863l10.5-9.95a.5.5 0 1 1 .688.726l-10.5 9.95a.501.501 0 0 1-.344.137z"/><path d="M6.5 22.502a.5.5 0 0 1-.5-.5v-11a.5.5 0 0 1 1 0v11a.5.5 0 0 1-.5.5z"/><path d="M22.5 17.002h-16a.5.5 0 0 1 0-1h16a.5.5 0 0 1 0 1z"/><metadata><rdf:RDF xmlns:rdf="http://www.w3.org/1999/02/22-rdf-syntax-ns#" xmlns:rdfs="http://www.w3.org/2000/01/rdf-schema#" xmlns:dc="http://purl.org/dc/elements/1.1/"><rdf:Description about="https://iconscout.com/legal#licenses" dc:title="picasa" dc:description="picasa" dc:publisher="Iconscout" dc:date="2018-01-03" dc:format="image/svg+xml" dc:language="en"><dc:creator><rdf:Bag><rdf:li>Icon 54</rdf:li></rdf:Bag></dc:creator></rdf:Description></rdf:RDF></metadata></svg>