<?xml version="1.0" encoding="UTF-8"?><svg xmlns="http://www.w3.org/2000/svg" xmlns:xlink="http://www.w3.org/1999/xlink" version="1.1" id="Layer_1" x="0px" y="0px" viewBox="0 0 24 24" xml:space="preserve"><path d="M7.5 24.002h-6a.5.5 0 0 1-.5-.5v-23a.5.5 0 0 1 .5-.5h21a.5.5 0 0 1 .5.5v17a.5.5 0 0 1-.5.5H8v5.5a.5.5 0 0 1-.5.5zm-5.5-1h5v-5.5a.5.5 0 0 1 .5-.5H22v-16H2v22z"/><path d="M16.5 12.002h-9a.5.5 0 0 1-.5-.5v-5a.5.5 0 0 1 .5-.5h9a.5.5 0 0 1 .5.5v5a.5.5 0 0 1-.5.5zm-8.5-1h8v-4H8v4z"/><metadata><rdf:RDF xmlns:rdf="http://www.w3.org/1999/02/22-rdf-syntax-ns#" xmlns:rdfs="http://www.w3.org/2000/01/rdf-schema#" xmlns:dc="http://purl.org/dc/elements/1.1/"><rdf:Description about="https://iconscout.com/legal#licenses" dc:title="plurk" dc:description="plurk" dc:publisher="Iconscout" dc:date="2018-01-03" dc:format="image/svg+xml" dc:language="en"><dc:creator><rdf:Bag><rdf:li>Icon 54</rdf:li></rdf:Bag></dc:creator></rdf:Description></rdf:RDF></metadata></svg>