<?xml version="1.0" encoding="UTF-8"?><svg xmlns="http://www.w3.org/2000/svg" xmlns:xlink="http://www.w3.org/1999/xlink" version="1.1" id="Layer_1" x="0px" y="0px" viewBox="0 0 24 24" xml:space="preserve"><path d="M17 24.002a6.97 6.97 0 0 1-3.739-1.082c-.467.056-.872.082-1.261.082-6.065 0-11-4.935-11-11 0-.39.026-.794.082-1.261A6.972 6.972 0 0 1 0 7.002c0-3.86 3.14-7 7-7a6.97 6.97 0 0 1 3.739 1.082c.467-.056.871-.082 1.261-.082 6.065 0 11 4.935 11 11 0 .39-.026.794-.082 1.261A6.97 6.97 0 0 1 24 17.002c0 3.86-3.14 7-7 7zm-3.619-2.101c.099 0 .196.029.279.085A5.966 5.966 0 0 0 17 23.002c3.309 0 6-2.691 6-6a5.972 5.972 0 0 0-1.016-3.34.498.498 0 0 1-.081-.344c.066-.503.097-.921.097-1.316 0-5.514-4.486-10-10-10-.395 0-.813.031-1.316.097a.5.5 0 0 1-.344-.081A5.964 5.964 0 0 0 7 1.002c-3.309 0-6 2.691-6 6 0 1.196.352 2.351 1.016 3.34a.498.498 0 0 1 .081.344A9.986 9.986 0 0 0 2 12.002c0 5.514 4.486 10 10 10 .395 0 .813-.031 1.316-.097a.463.463 0 0 1 .065-.004z"/><path d="M12 20.002c-3.882 0-6-2.312-6-3.5v-.5c0-.827.673-1.5 1.5-1.5.788 0 1.436.61 1.496 1.382.387.771 1.772 1.118 3.004 1.118.123 0 3-.023 3-2 0-.955-1.269-1.346-3.359-1.877C9.127 12.487 6 11.692 6 8.502c0-4.034 3.139-4.5 5.5-4.5 3.341 0 5.5 1.374 5.5 3.5 0 .827-.673 1.5-1.5 1.5-.762 0-1.393-.57-1.488-1.307-.412-.433-1.416-.7-2.578-.693-.647 0-1.306.006-1.763.207C9.359 7.347 9 7.618 9 8.502c0 .742 1.503 1.161 3.094 1.604 2.632.733 5.906 1.646 5.906 4.896 0 3.037-2.355 5-6 5zm-4.5-4.5a.5.5 0 0 0-.5.5v.5c0 .623 1.773 2.5 5 2.5 3.084 0 5-1.533 5-4 0-2.49-2.749-3.256-5.174-3.932C9.858 10.521 8 10.003 8 8.502c0-1.095.427-1.838 1.269-2.208.664-.292 1.458-.291 2.171-.292 1.676 0 2.918.441 3.467 1.209.06.085.093.187.093.291a.5.5 0 0 0 1 0c0-1.727-2.26-2.5-4.5-2.5-3.196 0-4.5 1.014-4.5 3.5 0 2.413 2.484 3.043 4.887 3.654C14.002 12.693 16 13.2 16 15.002c0 2.061-2.073 3-4 3-1.558 0-3.417-.476-3.963-1.811A.509.509 0 0 1 8 16.002a.5.5 0 0 0-.5-.5z"/><metadata><rdf:RDF xmlns:rdf="http://www.w3.org/1999/02/22-rdf-syntax-ns#" xmlns:rdfs="http://www.w3.org/2000/01/rdf-schema#" xmlns:dc="http://purl.org/dc/elements/1.1/"><rdf:Description about="https://iconscout.com/legal#licenses" dc:title="skype" dc:description="skype" dc:publisher="Iconscout" dc:date="2018-01-03" dc:format="image/svg+xml" dc:language="en"><dc:creator><rdf:Bag><rdf:li>Icon 54</rdf:li></rdf:Bag></dc:creator></rdf:Description></rdf:RDF></metadata></svg>