<?xml version="1.0" encoding="UTF-8"?><svg xmlns="http://www.w3.org/2000/svg" xmlns:xlink="http://www.w3.org/1999/xlink" version="1.1" id="Layer_1" x="0px" y="0px" viewBox="0 0 24 24" xml:space="preserve"><path d="M12 24.001c-6.617 0-12-5.383-12-12s5.383-12 12-12 12 5.383 12 12-5.383 12-12 12zm0-23c-6.065 0-11 4.935-11 11s4.935 11 11 11 11-4.935 11-11-4.935-11-11-11z"/><path d="M17 17.501a.493.493 0 0 1-.287-.091c-2.942-2.069-7.816-2.187-11.099-1.422a.5.5 0 1 1-.226-.974c3.494-.814 8.707-.667 11.901 1.578a.501.501 0 0 1-.289.909z"/><path d="M18.5 14.501a.492.492 0 0 1-.291-.094c-3.4-2.441-7.566-3.049-13.108-1.917a.499.499 0 1 1-.2-.98c5.835-1.194 10.249-.531 13.892 2.083a.5.5 0 0 1-.293.908z"/><path d="M20 10.501a.498.498 0 0 1-.28-.086C15.42 7.495 8.893 7.48 4.667 8.972a.5.5 0 1 1-.334-.942C8.795 6.453 15.707 6.481 20.28 9.588a.5.5 0 0 1-.28.913z"/><metadata><rdf:RDF xmlns:rdf="http://www.w3.org/1999/02/22-rdf-syntax-ns#" xmlns:rdfs="http://www.w3.org/2000/01/rdf-schema#" xmlns:dc="http://purl.org/dc/elements/1.1/"><rdf:Description about="https://iconscout.com/legal#licenses" dc:title="spotifi" dc:description="spotifi" dc:publisher="Iconscout" dc:date="2018-01-03" dc:format="image/svg+xml" dc:language="en"><dc:creator><rdf:Bag><rdf:li>Icon 54</rdf:li></rdf:Bag></dc:creator></rdf:Description></rdf:RDF></metadata></svg>