<?xml version="1.0" encoding="UTF-8"?><svg xmlns="http://www.w3.org/2000/svg" xmlns:xlink="http://www.w3.org/1999/xlink" version="1.1" id="Layer_1" x="0px" y="0px" viewBox="0 0 24 24" xml:space="preserve"><path d="M17.5 11.001c-1.654 0-3-1.346-3-3s1.346-3 3-3 3 1.346 3 3-1.346 3-3 3zm0-5c-1.103 0-2 .897-2 2s.897 2 2 2 2-.897 2-2-.897-2-2-2z"/><path d="M7.498 20.003c-.446 0-.89-.101-1.304-.3a.499.499 0 1 1 .436-.9 1.983 1.983 0 0 0 1.528.088 1.99 1.99 0 0 0 1.143-1.018 2.002 2.002 0 0 0-.931-2.671.5.5 0 1 1 .436-.9 3.004 3.004 0 0 1 1.396 4.006 2.98 2.98 0 0 1-1.714 1.528 3.053 3.053 0 0 1-.99.167z"/><path d="M7.5 22.001c-2.119 0-4.019-1.375-4.709-3.376l-1.949-.65a.498.498 0 0 1-.342-.474v-6a.499.499 0 0 1 .707-.455l3.702 1.683c.957-.583 2.019-.848 3.227-.683L11.5 7.933a6.008 6.008 0 0 1 6-5.932c3.309 0 6 2.691 6 6a6 6 0 0 1-5.501 5.973l-5.612 4.008A4.962 4.962 0 0 1 7.5 22.001zm-6-4.86l1.85.617a.499.499 0 0 1 .322.337c.489 1.711 2.063 2.907 3.828 2.907a3.97 3.97 0 0 0 3.936-3.384.502.502 0 0 1 .203-.33l5.894-4.209a.497.497 0 0 1 .262-.092 5 5 0 0 0 4.706-4.985c0-2.757-2.243-5-5-5s-5 2.243-5 5c0 .115-.035.332-.108.421l-3.665 4.48a.494.494 0 0 1-.479.175 4.026 4.026 0 0 0-.747-.076c-.811 0-1.594.245-2.265.708a.496.496 0 0 1-.491.043L1.5 12.278v4.863z"/><metadata><rdf:RDF xmlns:rdf="http://www.w3.org/1999/02/22-rdf-syntax-ns#" xmlns:rdfs="http://www.w3.org/2000/01/rdf-schema#" xmlns:dc="http://purl.org/dc/elements/1.1/"><rdf:Description about="https://iconscout.com/legal#licenses" dc:title="steam" dc:description="steam" dc:publisher="Iconscout" dc:date="2018-01-03" dc:format="image/svg+xml" dc:language="en"><dc:creator><rdf:Bag><rdf:li>Icon 54</rdf:li></rdf:Bag></dc:creator></rdf:Description></rdf:RDF></metadata></svg>