<?xml version="1.0" encoding="UTF-8"?><svg xmlns="http://www.w3.org/2000/svg" xmlns:xlink="http://www.w3.org/1999/xlink" version="1.1" id="Layer_1" x="0px" y="0px" viewBox="0 0 24 24" xml:space="preserve"><path d="M5.5 21.001a5.506 5.506 0 0 1-5.5-5.5v-2.5a.5.5 0 0 1 .5-.5h3a.5.5 0 0 1 .5.5v2.72a1.281 1.281 0 0 0 2.562.046L6.843 7.9a5.06 5.06 0 0 1 5.076-4.899A5.086 5.086 0 0 1 17 8.081v1.42a.5.5 0 0 1-.342.474l-1.5.5a.502.502 0 0 1-.316 0l-1.5-.5A.5.5 0 0 1 13 9.501v-1.5c0-.551-.449-1-1-1s-1 .449-1 1v7.5c0 3.033-2.467 5.5-5.5 5.5zm-4.5-7.5v2c0 2.481 2.019 4.5 4.5 4.5s4.5-2.019 4.5-4.5v-7.5c0-1.103.897-2 2-2s2 .897 2 2v1.14l1 .333 1-.333v-1.06c0-2.25-1.83-4.08-4.08-4.08-2.208 0-4 1.728-4.078 3.934l-.281 7.868a2.271 2.271 0 0 1-2.279 2.198A2.283 2.283 0 0 1 3 15.721v-2.22H1z"/><path d="M18.5 21.001a5.506 5.506 0 0 1-5.5-5.5v-3a.499.499 0 0 1 .659-.474l1.341.447 1.342-.447a.498.498 0 0 1 .658.474v3c0 .827.673 1.5 1.5 1.5s1.5-.673 1.5-1.5v-3a.5.5 0 0 1 .5-.5h3a.5.5 0 0 1 .5.5v3c0 3.033-2.467 5.5-5.5 5.5zM14 13.195v2.306c0 2.481 2.019 4.5 4.5 4.5s4.5-2.019 4.5-4.5v-2.5h-2v2.5c0 1.378-1.122 2.5-2.5 2.5s-2.5-1.122-2.5-2.5v-2.306l-.842.28a.502.502 0 0 1-.316 0l-.842-.28z"/><metadata><rdf:RDF xmlns:rdf="http://www.w3.org/1999/02/22-rdf-syntax-ns#" xmlns:rdfs="http://www.w3.org/2000/01/rdf-schema#" xmlns:dc="http://purl.org/dc/elements/1.1/"><rdf:Description about="https://iconscout.com/legal#licenses" dc:title="stumbleupon" dc:description="stumbleupon" dc:publisher="Iconscout" dc:date="2018-01-03" dc:format="image/svg+xml" dc:language="en"><dc:creator><rdf:Bag><rdf:li>Icon 54</rdf:li></rdf:Bag></dc:creator></rdf:Description></rdf:RDF></metadata></svg>