<?xml version="1.0" encoding="UTF-8"?><svg xmlns="http://www.w3.org/2000/svg" xmlns:xlink="http://www.w3.org/1999/xlink" version="1.1" id="Layer_1" x="0px" y="0px" viewBox="0 0 24 24" xml:space="preserve"><path d="M6.892 10.118c-2.128 0-4.321-.585-5.615-1.602C-.11 7.428-.371 5.93.56 4.407c.856-1.402 2.445-1.977 4.48-1.622 3.122.547 6.493 3.114 6.937 5.282a.5.5 0 0 1-.135.453c-1.1 1.105-2.998 1.598-4.95 1.598zM3.91 3.682c-.927 0-1.905.277-2.497 1.246C.739 6.03.897 6.947 1.895 7.73c2.042 1.602 6.985 1.965 9.029.274-.591-1.714-3.513-3.788-6.057-4.233a5.523 5.523 0 0 0-.957-.089z"/><path d="M13.986 7.668a.5.5 0 0 1-.397-.196c-.731-.955-.8-4.309.419-5.8.438-.538 1.435-1.31 3.196-.453 1.512.735 1.545 1.83 1.431 2.417-.389 1.988-3.372 3.948-4.616 4.031l-.033.001zm1.744-5.836c-.483 0-.762.246-.947.472-.856 1.047-.824 3.415-.524 4.301 1.066-.334 3.148-1.891 3.396-3.162.069-.351.051-.87-.887-1.326-.425-.206-.765-.285-1.038-.285z"/><path d="M21.374 19.668c-1.679 0-3.596-1.661-4.671-4.197-.802-1.891-.942-3.827-.374-5.179.3-.714.787-1.221 1.408-1.464 1.836-.718 4.269 1.051 5.535 4.036.802 1.891.942 3.827.374 5.179-.3.714-.787 1.221-1.408 1.464a2.344 2.344 0 0 1-.864.161zM18.609 9.666c-.178 0-.348.03-.508.093-.369.145-.655.455-.851.921-.458 1.092-.315 2.778.373 4.401 1.018 2.4 2.964 4.001 4.249 3.496.369-.145.655-.455.851-.921.458-1.092.315-2.778-.373-4.401-.891-2.101-2.493-3.589-3.741-3.589z"/><path d="M16.749 23.168c-2.313 0-4.71-2.031-5.967-5.053-.92-2.214-1.048-4.561-.342-6.275.471-1.145 1.272-1.972 2.315-2.391a3.933 3.933 0 0 1 1.47-.281c.242 0 .498.028.805.087a.5.5 0 0 1 .367.681c-.656 1.594-.512 3.809.386 5.926.927 2.186 2.492 3.876 4.186 4.52a.497.497 0 0 1 .254.718c-.487.838-1.18 1.456-2.005 1.787a3.94 3.94 0 0 1-1.469.281zm-2.525-13c-.381 0-.75.07-1.098.209-.787.316-1.396.954-1.763 1.843-.607 1.475-.479 3.535.341 5.511 1.103 2.654 3.13 4.437 5.043 4.437.381 0 .751-.07 1.097-.209a2.916 2.916 0 0 0 1.194-.895c-1.716-.866-3.249-2.62-4.179-4.811-.893-2.105-1.104-4.326-.602-6.084l-.033-.001z"/><path d="M11.17 22.147c-.014 0-.028 0-.042-.002-2.329-.199-4.772-1.481-4.875-1.536a.5.5 0 0 1-.245-.585c.036-.118.886-2.907 2.384-4.06a.498.498 0 0 1 .795.3 11.343 11.343 0 0 0 2.371 5.066.502.502 0 0 1 .056.55.503.503 0 0 1-.444.267zM7.1 19.912c.571.269 1.716.763 2.941 1.046a12.333 12.333 0 0 1-1.106-2.076c-.203-.49-.377-1-.52-1.526-.64.818-1.1 1.96-1.315 2.556z"/><metadata><rdf:RDF xmlns:rdf="http://www.w3.org/1999/02/22-rdf-syntax-ns#" xmlns:rdfs="http://www.w3.org/2000/01/rdf-schema#" xmlns:dc="http://purl.org/dc/elements/1.1/"><rdf:Description about="https://iconscout.com/legal#licenses" dc:title="swarm" dc:description="swarm" dc:publisher="Iconscout" dc:date="2018-01-03" dc:format="image/svg+xml" dc:language="en"><dc:creator><rdf:Bag><rdf:li>Icon 54</rdf:li></rdf:Bag></dc:creator></rdf:Description></rdf:RDF></metadata></svg>