<?xml version="1.0" encoding="UTF-8"?><svg xmlns="http://www.w3.org/2000/svg" xmlns:xlink="http://www.w3.org/1999/xlink" version="1.1" id="Layer_1" x="0px" y="0px" viewBox="0 0 24 24" xml:space="preserve"><path d="M12 24.001c-6.617 0-12-5.383-12-12s5.383-12 12-12 12 5.383 12 12-5.383 12-12 12zm0-23c-6.065 0-11 4.935-11 11s4.935 11 11 11 11-4.935 11-11-4.935-11-11-11z"/><path d="M15.5 16.001a.5.5 0 0 1-.447-.723l.639-1.276H8.309l.639 1.276a.5.5 0 0 1-.699.655l-6-3.5a.5.5 0 0 1-.001-.864l6-3.5a.5.5 0 0 1 .699.655L8.308 10h7.383l-.639-1.276a.5.5 0 0 1 .699-.655l6 3.5a.5.5 0 0 1 .001.864l-6 3.5a.494.494 0 0 1-.252.068zm-8-3h9a.498.498 0 0 1 .447.723l-.249.499L20.508 12l-3.81-2.223.249.499a.503.503 0 0 1-.021.486.503.503 0 0 1-.426.237h-9a.498.498 0 0 1-.447-.723l.249-.499L3.492 12l3.81 2.223-.249-.499a.503.503 0 0 1 .021-.486.503.503 0 0 1 .426-.237z"/><metadata><rdf:RDF xmlns:rdf="http://www.w3.org/1999/02/22-rdf-syntax-ns#" xmlns:rdfs="http://www.w3.org/2000/01/rdf-schema#" xmlns:dc="http://purl.org/dc/elements/1.1/"><rdf:Description about="https://iconscout.com/legal#licenses" dc:title="teamviewer" dc:description="teamviewer" dc:publisher="Iconscout" dc:date="2018-01-03" dc:format="image/svg+xml" dc:language="en"><dc:creator><rdf:Bag><rdf:li>Icon 54</rdf:li></rdf:Bag></dc:creator></rdf:Description></rdf:RDF></metadata></svg>