<?xml version="1.0" encoding="UTF-8"?><svg xmlns="http://www.w3.org/2000/svg" xmlns:xlink="http://www.w3.org/1999/xlink" version="1.1" id="Layer_1" x="0px" y="0px" viewBox="0 0 24 24" xml:space="preserve"><path d="M1.5 16.001c-.827 0-1.5-.673-1.5-1.5s.673-1.5 1.5-1.5 1.5.673 1.5 1.5-.673 1.5-1.5 1.5zm0-2a.5.5 0 1 0 .002 1.002A.5.5 0 0 0 1.5 14z"/><path d="M5.5 20.001c-.827 0-1.5-.673-1.5-1.5s.673-1.5 1.5-1.5 1.5.673 1.5 1.5-.673 1.5-1.5 1.5zm0-2a.5.5 0 1 0 .002 1.002A.5.5 0 0 0 5.5 18z"/><path d="M20.5 10.001c-.827 0-1.5-.673-1.5-1.5s.673-1.5 1.5-1.5 1.5.673 1.5 1.5-.673 1.5-1.5 1.5zm0-2a.5.5 0 1 0 .002 1.002A.5.5 0 0 0 20.5 8z"/><path d="M22.5 16.001c-.827 0-1.5-.673-1.5-1.5s.673-1.5 1.5-1.5 1.5.673 1.5 1.5-.673 1.5-1.5 1.5zm0-2a.5.5 0 1 0 .002 1.002A.5.5 0 0 0 22.5 14z"/><path d="M6.5 15.001h-4a.5.5 0 0 1 0-1h4a.5.5 0 0 1 0 1z"/><path d="M21.5 15.001h-5a.5.5 0 0 1 0-1h5a.5.5 0 0 1 0 1z"/><path d="M11.5 17.001c-1.963 0-3.5-1.098-3.5-2.5s1.537-2.5 3.5-2.5 3.5 1.098 3.5 2.5-1.537 2.5-3.5 2.5zm0-4c-1.355 0-2.5.687-2.5 1.5s1.145 1.5 2.5 1.5 2.5-.687 2.5-1.5-1.145-1.5-2.5-1.5z"/><path d="M11.5 9.001c-1.379 0-2.5-1.122-2.5-2.5s1.121-2.5 2.5-2.5 2.5 1.122 2.5 2.5-1.121 2.5-2.5 2.5zm0-4c-.827 0-1.5.673-1.5 1.5s.673 1.5 1.5 1.5 1.5-.673 1.5-1.5-.673-1.5-1.5-1.5z"/><path d="M11.5 11.001a.5.5 0 0 1-.5-.5v-2a.5.5 0 0 1 1 0v2a.5.5 0 0 1-.5.5z"/><path d="M6.5 18.001a.5.5 0 0 1-.223-.947l1-.5a.5.5 0 1 1 .447.895l-1 .5a.517.517 0 0 1-.224.052z"/><path d="M15.5 12.501a.5.5 0 0 1-.265-.924l4-2.5a.5.5 0 0 1 .529.848l-4 2.5a.496.496 0 0 1-.264.076z"/><path d="M16 19.001a1.001 1.001 0 0 1 0-2 1.001 1.001 0 0 1 0 2zm0-1h-.5.5z"/><path d="M15.5 18.001a.502.502 0 0 1-.354-.146l-.5-.5a.5.5 0 0 1 .707-.707l.5.5a.5.5 0 0 1-.353.853z"/><circle cx="4" cy="9.001" r="1"/><path d="M8 12.501a.5.5 0 0 1-.291-.093l-3.5-2.5a.5.5 0 0 1 .582-.814l3.5 2.5a.5.5 0 0 1-.291.907z"/><metadata><rdf:RDF xmlns:rdf="http://www.w3.org/1999/02/22-rdf-syntax-ns#" xmlns:rdfs="http://www.w3.org/2000/01/rdf-schema#" xmlns:dc="http://purl.org/dc/elements/1.1/"><rdf:Description about="https://iconscout.com/legal#licenses" dc:title="tripit" dc:description="tripit" dc:publisher="Iconscout" dc:date="2018-01-03" dc:format="image/svg+xml" dc:language="en"><dc:creator><rdf:Bag><rdf:li>Icon 54</rdf:li></rdf:Bag></dc:creator></rdf:Description></rdf:RDF></metadata></svg>