<?xml version="1.0" encoding="UTF-8"?><svg xmlns="http://www.w3.org/2000/svg" xmlns:xlink="http://www.w3.org/1999/xlink" version="1.1" id="Layer_1" x="0px" y="0px" viewBox="0 0 24 24" xml:space="preserve"><path d="M21.5 24h-12C4.262 24 0 19.739 0 14.5v-5C0 4.262 4.262 0 9.5 0h5C19.738 0 24 4.262 24 9.5v12c0 1.379-1.121 2.5-2.5 2.5zM9.5 1C4.813 1 1 4.813 1 9.5v5C1 19.187 4.813 23 9.5 23h12c.827 0 1.5-.673 1.5-1.5v-12C23 4.813 19.187 1 14.5 1h-5z"/><path d="M9.5 10a1.501 1.501 0 0 1 0-3c.827 0 1.5.673 1.5 1.5S10.327 10 9.5 10zm0-2c-.275 0-.5.225-.5.5s.225.5.5.5a.5.5 0 0 0 0-1z"/><path d="M7.494 20c-.224 0-.451-.051-.665-.158a1.488 1.488 0 0 1-.752-.867 1.492 1.492 0 0 1 .081-1.146l1.99-4.479a1.503 1.503 0 0 1 2.022-.691c.358.179.626.487.752.867.127.38.098.787-.081 1.146l-1.99 4.479c-.27.54-.804.849-1.357.849zM9.5 13.5a.494.494 0 0 0-.447.277l-1.99 4.479a.5.5 0 1 0 .885.467l1.99-4.479A.5.5 0 0 0 9.5 13.5z"/><path d="M14.491 19.002c-.215 0-.432-.05-.638-.153a1.574 1.574 0 0 1-.804-.979 1.32 1.32 0 0 1 .161-1.083C14.398 14.972 15 13.361 15 12s-.602-2.971-1.789-4.786a1.32 1.32 0 0 1-.161-1.083c.113-.418.414-.784.804-.979.683-.342 1.478-.098 1.974.606h.001C15.85 5.79 18 8.881 18 12s-2.15 6.211-2.172 6.242c-.348.493-.839.76-1.337.76zm-.006-13.001a.413.413 0 0 0-.185.045.566.566 0 0 0-.286.346.335.335 0 0 0 .034.275C15.344 8.647 16 10.442 16 12s-.656 3.353-1.951 5.333a.335.335 0 0 0-.034.275c.04.145.149.278.286.346.275.14.555-.069.71-.288C15.563 16.88 17 14.33 17 12s-1.437-4.88-1.99-5.667c-.119-.169-.314-.332-.525-.332z"/><metadata><rdf:RDF xmlns:rdf="http://www.w3.org/1999/02/22-rdf-syntax-ns#" xmlns:rdfs="http://www.w3.org/2000/01/rdf-schema#" xmlns:dc="http://purl.org/dc/elements/1.1/"><rdf:Description about="https://iconscout.com/legal#licenses" dc:title="tuenti" dc:description="tuenti" dc:publisher="Iconscout" dc:date="2018-01-03" dc:format="image/svg+xml" dc:language="en"><dc:creator><rdf:Bag><rdf:li>Icon 54</rdf:li></rdf:Bag></dc:creator></rdf:Description></rdf:RDF></metadata></svg>