<?xml version="1.0" encoding="UTF-8"?><svg xmlns="http://www.w3.org/2000/svg" xmlns:xlink="http://www.w3.org/1999/xlink" version="1.1" id="Layer_1" x="0px" y="0px" viewBox="0 0 24 24" xml:space="preserve"><path d="M14.5 24.002c-3.813 0-6-2.005-6-5.5v-7.5H5a.5.5 0 0 1-.5-.5v-3a.5.5 0 0 1 .5-.5c2.124 0 4.5-2.78 4.5-6.5a.5.5 0 0 1 .5-.5h4a.5.5 0 0 1 .5.5v5.5H18a.5.5 0 0 1 .5.5v4a.5.5 0 0 1-.5.5h-3.5v6.5c0 .858.316 1.476.915 1.787.674.349 1.639.266 2.297-.195a.5.5 0 0 1 .753.225c.472 1.195.993 2.968 1.015 3.043a.5.5 0 0 1-.232.575c-.076.042-1.898 1.065-4.748 1.065zm-9-14H9a.5.5 0 0 1 .5.5v8c0 3.719 2.719 4.5 5 4.5 1.88 0 3.277-.496 3.898-.765a45.89 45.89 0 0 0-.663-2.017c-.887.387-1.957.385-2.781-.043-.937-.487-1.454-1.437-1.454-2.675v-7a.5.5 0 0 1 .5-.5h3.5v-3H14a.5.5 0 0 1-.5-.5v-5.5h-3.013C10.293 4.877 7.859 7.619 5.5 7.965v2.037z"/><metadata><rdf:RDF xmlns:rdf="http://www.w3.org/1999/02/22-rdf-syntax-ns#" xmlns:rdfs="http://www.w3.org/2000/01/rdf-schema#" xmlns:dc="http://purl.org/dc/elements/1.1/"><rdf:Description about="https://iconscout.com/legal#licenses" dc:title="tumblr" dc:description="tumblr" dc:publisher="Iconscout" dc:date="2018-01-03" dc:format="image/svg+xml" dc:language="en"><dc:creator><rdf:Bag><rdf:li>Icon 54</rdf:li></rdf:Bag></dc:creator></rdf:Description></rdf:RDF></metadata></svg>