<?xml version="1.0" encoding="UTF-8"?><svg xmlns="http://www.w3.org/2000/svg" xmlns:xlink="http://www.w3.org/1999/xlink" version="1.1" id="Layer_1" x="0px" y="0px" viewBox="0 0 24 24" xml:space="preserve"><path d="M18 24.002H9.5c-4.136 0-7.5-3.364-7.5-7.5v-12.5c0-1.108.442-2.139 1.247-2.902C4.051.338 5.086-.04 6.215.007c2.024.106 3.683 1.878 3.78 3.995H18c1.108 0 2.139.443 2.901 1.247s1.151 1.858 1.093 2.968c-.109 2.087-1.99 3.786-4.192 3.786H10v4h7.802c2.202 0 4.083 1.698 4.192 3.785.059 1.11-.33 2.165-1.093 2.968S19.108 24.002 18 24.002zm-12.001-23a2.97 2.97 0 0 0-2.063.824A2.97 2.97 0 0 0 3 4.002v12.5c0 3.584 2.916 6.5 6.5 6.5H18c.831 0 1.604-.332 2.176-.935s.863-1.394.82-2.228c-.083-1.564-1.516-2.837-3.194-2.837H9.5a.5.5 0 0 1-.5-.5v-5a.5.5 0 0 1 .5-.5h8.302c1.679 0 3.111-1.273 3.194-2.838.043-.833-.248-1.624-.82-2.227S18.831 5.002 18 5.002H9.5a.5.5 0 0 1-.5-.5V4.2c0-1.679-1.273-3.112-2.838-3.194a2.955 2.955 0 0 0-.163-.004z"/><metadata><rdf:RDF xmlns:rdf="http://www.w3.org/1999/02/22-rdf-syntax-ns#" xmlns:rdfs="http://www.w3.org/2000/01/rdf-schema#" xmlns:dc="http://purl.org/dc/elements/1.1/"><rdf:Description about="https://iconscout.com/legal#licenses" dc:title="twitter" dc:description="twitter" dc:publisher="Iconscout" dc:date="2018-01-03" dc:format="image/svg+xml" dc:language="en"><dc:creator><rdf:Bag><rdf:li>Icon 54</rdf:li></rdf:Bag></dc:creator></rdf:Description></rdf:RDF></metadata></svg>