<?xml version="1.0" encoding="UTF-8"?><svg xmlns="http://www.w3.org/2000/svg" xmlns:xlink="http://www.w3.org/1999/xlink" version="1.1" id="Layer_1" x="0px" y="0px" viewBox="0 0 24 24" xml:space="preserve"><path d="M17.5 22.002h-10a.5.5 0 0 1-.5-.5v-2.337L.638 20.983A.503.503 0 0 1 0 20.502v-7c0-.168.084-.325.225-.417a.494.494 0 0 1 .473-.042L7 15.744v-.76a6.508 6.508 0 0 1-6-6.481c0-3.584 2.916-6.5 6.5-6.5 1.948 0 3.771.867 5 2.349a6.485 6.485 0 0 1 5-2.349c3.584 0 6.5 2.916 6.5 6.5s-2.916 6.5-6.5 6.5h-2.242l2.702 6.303a.502.502 0 0 1-.46.696zm-9.5-1h8.742l-2.702-6.303a.502.502 0 0 1 .46-.697h3c3.032 0 5.5-2.467 5.5-5.5s-2.468-5.5-5.5-5.5c-1.847 0-3.56.92-4.583 2.462-.186.279-.648.279-.834 0A5.49 5.49 0 0 0 7.5 3.002c-3.032 0-5.5 2.467-5.5 5.5s2.468 5.5 5.5 5.5a.5.5 0 0 1 .5.5v2a.5.5 0 0 1-.698.459L1 14.261v5.579l6.362-1.818a.499.499 0 0 1 .638.48v2.5zm9.5-10c-1.379 0-2.5-1.122-2.5-2.5s1.121-2.5 2.5-2.5 2.5 1.122 2.5 2.5-1.121 2.5-2.5 2.5zm0-4c-.827 0-1.5.673-1.5 1.5s.673 1.5 1.5 1.5 1.5-.673 1.5-1.5-.673-1.5-1.5-1.5zm-10 4c-1.379 0-2.5-1.122-2.5-2.5s1.121-2.5 2.5-2.5 2.5 1.122 2.5 2.5-1.121 2.5-2.5 2.5zm0-4c-.827 0-1.5.673-1.5 1.5s.673 1.5 1.5 1.5S9 9.329 9 8.502s-.673-1.5-1.5-1.5z"/><metadata><rdf:RDF xmlns:rdf="http://www.w3.org/1999/02/22-rdf-syntax-ns#" xmlns:rdfs="http://www.w3.org/2000/01/rdf-schema#" xmlns:dc="http://purl.org/dc/elements/1.1/"><rdf:Description about="https://iconscout.com/legal#licenses" dc:title="viddler" dc:description="viddler" dc:publisher="Iconscout" dc:date="2018-01-03" dc:format="image/svg+xml" dc:language="en"><dc:creator><rdf:Bag><rdf:li>Icon 54</rdf:li></rdf:Bag></dc:creator></rdf:Description></rdf:RDF></metadata></svg>