<?xml version="1.0" encoding="UTF-8"?><svg xmlns="http://www.w3.org/2000/svg" xmlns:xlink="http://www.w3.org/1999/xlink" version="1.1" id="Layer_1" x="0px" y="0px" viewBox="0 0 24 24" xml:space="preserve"><path d="M11 23.003c-4.46 0-6.356-10.814-6.865-14.428L2.853 9.856a.5.5 0 0 1-.577.094l-2-1a.498.498 0 0 1-.19-.728C3.705 2.893 6.611 1.003 8 1.003c2.049 0 2.685 3.659 3.358 7.532.355 2.045.95 5.468 1.642 5.468.61-.187 3.232-3.72 2.996-5.368-.03-.206-.091-.632-.996-.632h-1.5a.5.5 0 0 1-.5-.5c0-5.413 2.296-6.5 6-6.5 3.084 0 5 2.107 5 5.5 0 5.538-7.9 16.5-13 16.5zm-6.5-16a.5.5 0 0 1 .497.442C5.47 11.494 7.47 22.003 11 22.003c4.587 0 12-10.432 12-15.5 0-1.353-.39-4.5-4-4.5-2.737 0-4.853.378-4.993 5H15c.658 0 1.168.174 1.517.516.327.321.493.766.493 1.322 0 2.183-2.811 6.162-4.009 6.162-1.533 0-2.016-2.778-2.627-6.296C9.881 5.877 9.208 2.003 8 2.003c-.965 0-3.536 1.691-6.762 6.31l1.164.582L4.147 7.15a.497.497 0 0 1 .353-.147z"/><metadata><rdf:RDF xmlns:rdf="http://www.w3.org/1999/02/22-rdf-syntax-ns#" xmlns:rdfs="http://www.w3.org/2000/01/rdf-schema#" xmlns:dc="http://purl.org/dc/elements/1.1/"><rdf:Description about="https://iconscout.com/legal#licenses" dc:title="vimeo" dc:description="vimeo" dc:publisher="Iconscout" dc:date="2018-01-03" dc:format="image/svg+xml" dc:language="en"><dc:creator><rdf:Bag><rdf:li>Icon 54</rdf:li></rdf:Bag></dc:creator></rdf:Description></rdf:RDF></metadata></svg>