<?xml version="1.0" encoding="UTF-8"?><svg xmlns="http://www.w3.org/2000/svg" xmlns:xlink="http://www.w3.org/1999/xlink" version="1.1" id="Layer_1" x="0px" y="0px" viewBox="0 0 24 24" xml:space="preserve"><path d="M11.5 24.001c-6.213 0-10-16.884-10-19.5a.5.5 0 0 1 .5-.5h3a.5.5 0 0 1 .5.5c0 4.315 4.651 15.5 6 15.5.59-.057 2.525-2.669 4.314-5.802-1.221-.723-4.314-3.018-4.314-7.698 0-6.031 4.592-6.5 6-6.5.624 0 2.523 0 3.777 1.549 1.276 1.577 1.516 4.287.712 8.055a.5.5 0 0 1-.489.396c-1.054 0-2.233-.477-2.867-1.16a.5.5 0 0 1-.11-.49c.295-.94.338-2.823-.357-3.771-.286-.39-.667-.579-1.166-.579-.513 0-.885.254-1.139.776-.566 1.165-.303 3.352.532 4.415 1.644 2.092 3.317 2.661 5.426 1.843a.501.501 0 0 1 .681.467v2.5c0 .2-.119.381-.303.459-.78.334-1.728.511-2.888.537-.883 1.72-4.801 9.003-7.809 9.003zm-8.973-19c.355 3.84 4.169 18 8.973 18 1.96 0 5.366-5.351 7.053-8.724a.5.5 0 0 1 .447-.276c1.007 0 1.83-.112 2.5-.343v-1.465c-2.228.607-4.16-.177-5.893-2.383-1.087-1.384-1.389-3.94-.646-5.47.42-.864 1.144-1.339 2.039-1.339.816 0 1.498.341 1.972.988.872 1.188.875 3.144.589 4.352.39.312.974.55 1.537.631.634-3.232.434-5.516-.599-6.792-.854-1.057-2.121-1.179-3-1.179-1.867 0-5 .714-5 5.5 0 5.131 4.029 6.966 4.201 7.042a.504.504 0 0 1 .236.702c-1.133 2.031-3.931 6.756-5.437 6.756-2.51 0-6.629-11.902-6.977-16H2.527z"/><metadata><rdf:RDF xmlns:rdf="http://www.w3.org/1999/02/22-rdf-syntax-ns#" xmlns:rdfs="http://www.w3.org/2000/01/rdf-schema#" xmlns:dc="http://purl.org/dc/elements/1.1/"><rdf:Description about="https://iconscout.com/legal#licenses" dc:title="vine" dc:description="vine" dc:publisher="Iconscout" dc:date="2018-01-03" dc:format="image/svg+xml" dc:language="en"><dc:creator><rdf:Bag><rdf:li>Icon 54</rdf:li></rdf:Bag></dc:creator></rdf:Description></rdf:RDF></metadata></svg>