<?xml version="1.0" encoding="UTF-8"?><svg xmlns="http://www.w3.org/2000/svg" xmlns:xlink="http://www.w3.org/1999/xlink" version="1.1" id="Layer_1" x="0px" y="0px" viewBox="0 0 24 24" xml:space="preserve"><path d="M23 21.001H7a6.508 6.508 0 0 1-6.5-6.5v-11a.5.5 0 0 1 .5-.5h4a.5.5 0 0 1 .5.5v11c0 .827.673 1.5 1.5 1.5h2.5v-12.5a.5.5 0 0 1 .5-.5h4a.5.5 0 0 1 .5.5v12.5h4v-12.5a.5.5 0 0 1 .5-.5h4a.5.5 0 0 1 .5.5v17a.5.5 0 0 1-.5.5zm-21.5-17v10.5c0 3.033 2.467 5.5 5.5 5.5h15.5v-16h-3v12.5a.5.5 0 0 1-.5.5h-5a.5.5 0 0 1-.5-.5v-12.5h-3v12.5a.5.5 0 0 1-.5.5H7a2.503 2.503 0 0 1-2.5-2.5v-10.5h-3z"/><metadata><rdf:RDF xmlns:rdf="http://www.w3.org/1999/02/22-rdf-syntax-ns#" xmlns:rdfs="http://www.w3.org/2000/01/rdf-schema#" xmlns:dc="http://purl.org/dc/elements/1.1/"><rdf:Description about="https://iconscout.com/legal#licenses" dc:title="wattpad" dc:description="wattpad" dc:publisher="Iconscout" dc:date="2018-01-03" dc:format="image/svg+xml" dc:language="en"><dc:creator><rdf:Bag><rdf:li>Icon 54</rdf:li></rdf:Bag></dc:creator></rdf:Description></rdf:RDF></metadata></svg>