<?xml version="1.0" encoding="UTF-8"?><svg xmlns="http://www.w3.org/2000/svg" xmlns:xlink="http://www.w3.org/1999/xlink" version="1.1" id="Layer_1" x="0px" y="0px" viewBox="0 0 24 24" xml:space="preserve"><path d="M5.5 8.001c-.827 0-1.5-.673-1.5-1.5s.673-1.5 1.5-1.5 1.5.673 1.5 1.5-.673 1.5-1.5 1.5zm0-2a.5.5 0 1 0 .002 1.002A.5.5 0 0 0 5.5 6z"/><path d="M11.5 8.001c-.827 0-1.5-.673-1.5-1.5s.673-1.5 1.5-1.5 1.5.673 1.5 1.5-.673 1.5-1.5 1.5zm0-2a.5.5 0 1 0 .002 1.002A.5.5 0 0 0 11.5 6z"/><path d="M21.5 22.001a.498.498 0 0 1-.224-.053l-2.479-1.24A9.19 9.19 0 0 1 16.5 21C12.364 21 9 18.309 9 15s3.364-6 7.5-6 7.5 2.691 7.5 6c0 1.783-1.007 3.482-2.715 4.616l.679 1.699a.502.502 0 0 1-.464.686zm-2.649-2.324c.077 0 .153.018.224.053l1.473.736-.347-.866a.498.498 0 0 1 .212-.617c1.644-.96 2.587-2.411 2.587-3.982 0-2.757-2.916-5-6.5-5s-6.5 2.243-6.5 5 2.916 5 6.5 5c.747 0 1.492-.103 2.216-.306a.516.516 0 0 1 .135-.018z"/><path d="M2.5 18.001a.502.502 0 0 1-.448-.724l1.033-2.067C1.119 13.781 0 11.722 0 9.501c0-4.136 3.925-7.5 8.75-7.5 3.894 0 7.261 2.146 8.378 5.342a.5.5 0 0 1-.066.458c-.097.133-.254.193-.414.207l-.131-.451-.017.006v.438c-4.687 0-8.5 3.14-8.5 7 0 .432.053.876.156 1.319a.503.503 0 0 1-.544.61 9.946 9.946 0 0 1-2.219-.507l-2.646 1.512a.484.484 0 0 1-.247.066zm6.25-15C4.477 3.001 1 5.917 1 9.501c0 2.012 1.094 3.88 3.001 5.126a.5.5 0 0 1 .174.642l-.489.979 1.415-.809a.51.51 0 0 1 .428-.033c.484.187.995.331 1.525.43A6.55 6.55 0 0 1 7 15.001c0-4.244 3.944-7.726 8.907-7.985-1.186-2.394-4.021-4.015-7.157-4.015z"/><circle cx="14" cy="13.001" r="1"/><circle cx="19" cy="13.001" r="1"/><metadata><rdf:RDF xmlns:rdf="http://www.w3.org/1999/02/22-rdf-syntax-ns#" xmlns:rdfs="http://www.w3.org/2000/01/rdf-schema#" xmlns:dc="http://purl.org/dc/elements/1.1/"><rdf:Description about="https://iconscout.com/legal#licenses" dc:title="wechat" dc:description="wechat" dc:publisher="Iconscout" dc:date="2018-01-03" dc:format="image/svg+xml" dc:language="en"><dc:creator><rdf:Bag><rdf:li>Icon 54</rdf:li></rdf:Bag></dc:creator></rdf:Description></rdf:RDF></metadata></svg>