<?xml version="1.0" encoding="UTF-8"?><svg xmlns="http://www.w3.org/2000/svg" xmlns:xlink="http://www.w3.org/1999/xlink" version="1.1" id="Layer_1" x="0px" y="0px" viewBox="0 0 24 24" xml:space="preserve"><path d="M20 24.002h-5a.503.503 0 0 1-.438-.257l-5-9a.502.502 0 0 1 .003-.491l8-14A.502.502 0 0 1 18 .002h5a.5.5 0 0 1 .435.748l-7.86 13.755 4.863 8.754a.499.499 0 0 1-.438.743zm-4.706-1h3.856l-4.588-8.257a.502.502 0 0 1 .003-.491l7.573-13.252H18.29l-7.716 13.503 4.72 8.497z"/><path d="M6 17.002H1a.5.5 0 0 1-.435-.748L4.42 9.508 1.57 4.759a.51.51 0 0 1-.006-.504A.503.503 0 0 1 2 4.002h5c.176 0 .339.092.429.243l3 5a.501.501 0 0 1 .006.505l-4 7a.502.502 0 0 1-.435.252zm-4.139-1H5.71l3.711-6.494-2.704-4.506H2.883l2.546 4.243a.506.506 0 0 1 .006.505l-3.574 6.252z"/><metadata><rdf:RDF xmlns:rdf="http://www.w3.org/1999/02/22-rdf-syntax-ns#" xmlns:rdfs="http://www.w3.org/2000/01/rdf-schema#" xmlns:dc="http://purl.org/dc/elements/1.1/"><rdf:Description about="https://iconscout.com/legal#licenses" dc:title="xing" dc:description="xing" dc:publisher="Iconscout" dc:date="2018-01-03" dc:format="image/svg+xml" dc:language="en"><dc:creator><rdf:Bag><rdf:li>Icon 54</rdf:li></rdf:Bag></dc:creator></rdf:Description></rdf:RDF></metadata></svg>