<?xml version="1.0" encoding="UTF-8"?><svg xmlns="http://www.w3.org/2000/svg" xmlns:xlink="http://www.w3.org/1999/xlink" version="1.1" id="Layer_1" x="0px" y="0px" viewBox="0 0 24 24" xml:space="preserve"><path d="M12 24.001c-6.617 0-12-5.383-12-12s5.383-12 12-12 12 5.383 12 12-5.383 12-12 12zm0-23c-6.065 0-11 4.935-11 11s4.935 11 11 11 11-4.935 11-11-4.935-11-11-11z"/><path d="M12 21.001c-4.636 0-8-3.995-8-9.5a.5.5 0 0 1 .5-.5h15a.5.5 0 0 1 .5.5c0 5.505-3.364 9.5-8 9.5zm-6.99-9c.186 4.736 3.008 8 6.99 8s6.805-3.264 6.99-8H5.01z"/><path d="M19 14.001H5a.5.5 0 0 1 0-1h14a.5.5 0 0 1 0 1z"/><path d="M9 9.001c-.579 0-1-.631-1-1.5s.421-1.5 1-1.5 1 .631 1 1.5-.421 1.5-1 1.5z"/><path d="M15 9.001c-.579 0-1-.631-1-1.5s.421-1.5 1-1.5 1 .631 1 1.5-.421 1.5-1 1.5z"/><metadata><rdf:RDF xmlns:rdf="http://www.w3.org/1999/02/22-rdf-syntax-ns#" xmlns:rdfs="http://www.w3.org/2000/01/rdf-schema#" xmlns:dc="http://purl.org/dc/elements/1.1/"><rdf:Description about="https://iconscout.com/legal#licenses" dc:title="yahoo,messenger" dc:description="yahoo,messenger" dc:publisher="Iconscout" dc:date="2018-01-03" dc:format="image/svg+xml" dc:language="en"><dc:creator><rdf:Bag><rdf:li>Icon 54</rdf:li></rdf:Bag></dc:creator></rdf:Description></rdf:RDF></metadata></svg>