<?xml version="1.0" encoding="UTF-8"?><svg xmlns="http://www.w3.org/2000/svg" xmlns:xlink="http://www.w3.org/1999/xlink" version="1.1" id="Layer_1" x="0px" y="0px" viewBox="0 0 24 24" xml:space="preserve"><path d="M9.5 22.502h-3a.5.5 0 0 1-.499-.53l.491-8.353L.064 2.248A.5.5 0 0 1 .5 1.502H3c.182 0 .349.099.438.257L8 9.972l4.563-8.213A.498.498 0 0 1 13 1.502h2.5a.5.5 0 0 1 .436.746L9.508 13.619l.491 8.353a.502.502 0 0 1-.499.53zm-2.47-1h1.94l-.469-7.971a.507.507 0 0 1 .063-.275l6.078-10.754h-1.349l-4.856 8.743c-.178.317-.697.317-.875 0L2.706 2.502H1.357l6.078 10.754a.498.498 0 0 1 .063.275l-.468 7.971z"/><path d="M19.5 22.502c-.827 0-1.5-.673-1.5-1.5s.673-1.5 1.5-1.5 1.5.673 1.5 1.5-.673 1.5-1.5 1.5zm0-2a.5.5 0 1 0 .002 1.002.5.5 0 0 0-.002-1.002z"/><path d="M20.501 17.502a.501.501 0 0 1-.5-.536l1-14c-.001-.792.672-1.464 1.499-1.464s1.5.673 1.5 1.5c0 .068 0 .196-3.012 14.106a.5.5 0 0 1-.487.394zm1.999-15a.5.5 0 0 0-.5.5l-.499 6.996c.764-3.547 1.424-6.63 1.498-7.029a.5.5 0 0 0-.499-.467z"/><metadata><rdf:RDF xmlns:rdf="http://www.w3.org/1999/02/22-rdf-syntax-ns#" xmlns:rdfs="http://www.w3.org/2000/01/rdf-schema#" xmlns:dc="http://purl.org/dc/elements/1.1/"><rdf:Description about="https://iconscout.com/legal#licenses" dc:title="yahoo" dc:description="yahoo" dc:publisher="Iconscout" dc:date="2018-01-03" dc:format="image/svg+xml" dc:language="en"><dc:creator><rdf:Bag><rdf:li>Icon 54</rdf:li></rdf:Bag></dc:creator></rdf:Description></rdf:RDF></metadata></svg>