<?xml version="1.0" encoding="UTF-8"?><svg xmlns="http://www.w3.org/2000/svg" xmlns:xlink="http://www.w3.org/1999/xlink" version="1.1" id="Layer_1" x="0px" y="0px" viewBox="0 0 24 24" xml:space="preserve"><path d="M3.277 22.001h-.774c-.827 0-1.5-.673-1.5-1.5s.673-1.5 1.5-1.5h1.109c.624 0 1.189-.393 1.406-.978l.739-1.991L.663 4.173c-.373-.688-.1-1.6.628-1.992a1.497 1.497 0 0 1 2.034.609l3.99 9.046L10.64 2.88c.392-.79 1.297-1.089 2.034-.721.74.37 1.041 1.273.671 2.013L7.466 19.146a4.475 4.475 0 0 1-4.189 2.855zm-.774-2a.5.5 0 0 0 0 1h.773a3.48 3.48 0 0 0 3.258-2.221l5.897-15.015a.54.54 0 0 0 .046-.423.5.5 0 0 0-.922-.065L7.823 13.339a.5.5 0 0 1-.454.326.516.516 0 0 1-.472-.298L2.427 3.229a.5.5 0 0 0-.28-.207.502.502 0 0 0-.584.717l5.192 12.083a.496.496 0 0 1 .01.371l-.809 2.179a2.51 2.51 0 0 1-2.344 1.63H2.503z"/><path d="M22.003 13.001c-1.014 0-5.845-.482-6.05-.502a.5.5 0 0 1-.093-.976c.521-.156 5.13-1.521 6.143-1.521.827 0 1.5.673 1.5 1.5s-.673 1.499-1.5 1.499zm-3.31-1.246c1.358.124 2.829.246 3.311.246a.5.5 0 0 0 0-1c-.407 0-1.831.351-3.311.754z"/><path d="M14.003 9.001a.502.502 0 0 1-.337-.869c.365-.334 3.597-3.28 4.395-3.792.721-.464 1.546-.404 2.053.151.224.247.355.567.378.91.13.478-.224 1.121-.672 1.487-1.403 1.146-5.534 2.062-5.709 2.101a.51.51 0 0 1-.108.012zm5.056-3.972c-.205 0-.404.119-.458.153-.396.254-1.646 1.342-2.746 2.322 1.274-.374 2.709-.882 3.332-1.391.186-.152.305-.375.328-.476a.503.503 0 0 1-.021-.139.497.497 0 0 0-.122-.335.41.41 0 0 0-.313-.134z"/><path d="M19.055 19.001c-.326 0-.671-.103-.994-.31-.799-.512-4.03-3.484-4.396-3.822a.5.5 0 0 1 .449-.855c.175.04 4.304.984 5.706 2.129.449.366.802 1.008.672 1.487a1.49 1.49 0 0 1-.377.908c-.28.307-.657.463-1.06.463zm-3.198-3.49c1.1.988 2.348 2.084 2.743 2.338.085.054.515.304.773.017a.498.498 0 0 0 .121-.334c0-.047.008-.094.021-.139a1.044 1.044 0 0 0-.327-.475c-.624-.509-2.058-1.026-3.331-1.407z"/><metadata><rdf:RDF xmlns:rdf="http://www.w3.org/1999/02/22-rdf-syntax-ns#" xmlns:rdfs="http://www.w3.org/2000/01/rdf-schema#" xmlns:dc="http://purl.org/dc/elements/1.1/"><rdf:Description about="https://iconscout.com/legal#licenses" dc:title="yammer" dc:description="yammer" dc:publisher="Iconscout" dc:date="2018-01-03" dc:format="image/svg+xml" dc:language="en"><dc:creator><rdf:Bag><rdf:li>Icon 54</rdf:li></rdf:Bag></dc:creator></rdf:Description></rdf:RDF></metadata></svg>