<?xml version="1.0" encoding="UTF-8"?><svg xmlns="http://www.w3.org/2000/svg" xmlns:xlink="http://www.w3.org/1999/xlink" version="1.1" id="Layer_1" x="0px" y="0px" viewBox="0 0 24 24" xml:space="preserve"><path d="M15 24.001c-1.435 0-3.348-.585-4.419-2.227-.715-1.096-2.03-3.882-2.67-5.267-.523.658-1.391 1.494-2.411 1.494-2 0-2-2.453-2-3.5 0-2.652 2.108-4.5 4-4.5.966 0 1.572.185 1.932.361l4.433-4.433c-1-.13-1.732-.411-2.308-.631-.434-.166-.777-.297-1.057-.297-.315 0-.568.172-.888.391-.398.271-.894.609-1.612.609-.32 0-.611-.126-.842-.366-.693-.721-.67-2.336-.658-2.653C6.526 1.955 7.082.001 9 .001c3.901 0 6.607 1.173 7.718 1.76.281-.722.849-1.76 1.782-1.76.743 0 2 .632 2 3 0 1.646-1.071 2.525-1.933 3.23-.214.175-.426.348-.618.53-.461 1.355-3.974 4.71-6.315 6.839.889 1.487 3.012 4.4 4.866 4.4.872 0 1.202-.234 1.552-.483.341-.242.727-.517 1.448-.517 1 0 1 1.565 1 2.5 0 3.117-3.985 4.501-5.5 4.501zm-7-9h.025a.5.5 0 0 1 .431.293c.021.045 2.057 4.544 2.963 5.933C12.272 22.534 13.828 23 15 23c1.048 0 4.5-1.091 4.5-3.5 0-.967-.08-1.348-.134-1.495-.312.025-.479.144-.735.327-.418.297-.939.668-2.131.668-3.011 0-5.82-5.044-5.938-5.259a.502.502 0 0 1 .104-.612c2.945-2.663 6.206-5.963 6.337-6.651 0-.132.051-.237.145-.331.239-.239.511-.463.787-.689.839-.689 1.565-1.284 1.565-2.457 0-1.374-.519-2-1-2-.362 0-.836.948-1.017 1.628a.5.5 0 0 1-.76.288C16.694 2.898 13.771 1.001 9 1.001c-1.434 0-1.498 1.93-1.5 2.013-.022.618.081 1.619.379 1.928.053.054.087.059.121.059.409 0 .705-.202 1.049-.436.388-.264.827-.564 1.451-.564.466 0 .905.168 1.415.364.739.283 1.659.636 3.085.636a.5.5 0 0 1 .354.854l-5.5 5.5a.516.516 0 0 1-.361.146.493.493 0 0 1-.356-.158c-.003 0-.419-.342-1.636-.342-1.253 0-3 1.332-3 3.5 0 2.197.48 2.5 1 2.5.856 0 1.804-1.296 2.067-1.751A.5.5 0 0 1 8 15.001z"/><metadata><rdf:RDF xmlns:rdf="http://www.w3.org/1999/02/22-rdf-syntax-ns#" xmlns:rdfs="http://www.w3.org/2000/01/rdf-schema#" xmlns:dc="http://purl.org/dc/elements/1.1/"><rdf:Description about="https://iconscout.com/legal#licenses" dc:title="zootool" dc:description="zootool" dc:publisher="Iconscout" dc:date="2018-01-03" dc:format="image/svg+xml" dc:language="en"><dc:creator><rdf:Bag><rdf:li>Icon 54</rdf:li></rdf:Bag></dc:creator></rdf:Description></rdf:RDF></metadata></svg>